<?xml version="1.0" encoding="UTF-8" standalone="no"?><svg xmlns="http://www.w3.org/2000/svg" xmlns:xlink="http://www.w3.org/1999/xlink" clip-rule="evenodd" stroke-miterlimit="4.00" viewBox="0 0 1024 768"><desc>SVG generated by Keynote</desc><defs></defs><g transform="matrix(1.00, 0.00, -0.00, -1.00, 0.0, 768.0)"><path d="M 0.0 768.0 L 1024.0 768.0 L 1024.0 0.0 L 0.0 0.0 Z M 0.0 768.0 " fill="#212121"></path><path d="M 367.8 266.9 C 391.1 243.5 391.1 205.6 367.8 182.2 C 344.6 158.8 306.9 158.8 283.7 182.2 C 260.4 205.6 260.4 243.5 283.7 266.9 C 306.9 290.3 344.6 290.3 367.8 266.9 Z M 367.8 266.9 " fill="#34A4DA"></path><g><clipPath id="clip-1201"><path d="M 266.0 164.7 L 385.6 164.7 L 385.6 284.5 L 266.0 284.5 Z M 266.0 164.7 "></path></clipPath><g clip-path="url(#clip-1201)"><text xml:space="preserve" font-family="DINCondensed-Bold" font-weight="bold" font-size="28.0" fill="#FFFFFF" transform="matrix(1.00, 0.00, -0.00, -1.00, 308.0, 221.0)">S</text><text xml:space="preserve" font-family="DINCondensed-Bold" font-weight="bold" font-size="28.0" fill="#FFFFFF" transform="matrix(1.00, 0.00, -0.00, -1.00, 319.4, 221.0)">V</text><text xml:space="preserve" font-family="DINCondensed-Bold" font-weight="bold" font-size="28.0" fill="#FFFFFF" transform="matrix(1.00, 0.00, -0.00, -1.00, 330.8, 221.0)">G</text></g></g><path d="M 367.8 585.8 C 391.1 562.4 391.1 524.5 367.8 501.1 C 344.6 477.7 306.9 477.7 283.7 501.1 C 260.4 524.5 260.4 562.4 283.7 585.8 C 306.9 609.2 344.6 609.2 367.8 585.8 Z M 367.8 585.8 " fill="#FDCA55"></path><g><clipPath id="clip-1202"><path d="M 266.1 483.5 L 385.5 483.5 L 385.5 603.3 L 266.1 603.3 Z M 266.1 483.5 "></path></clipPath><g clip-path="url(#clip-1202)"><text xml:space="preserve" font-family="DINCondensed-Bold" font-weight="bold" font-size="28.0" fill="#222222" transform="matrix(1.00, 0.00, -0.00, -1.00, 302.0, 540.0)">H</text><text xml:space="preserve" font-family="DINCondensed-Bold" font-weight="bold" font-size="28.0" fill="#222222" transform="matrix(1.00, 0.00, -0.00, -1.00, 313.9, 540.0)">T</text><text xml:space="preserve" font-family="DINCondensed-Bold" font-weight="bold" font-size="28.0" fill="#222222" transform="matrix(1.00, 0.00, -0.00, -1.00, 323.2, 540.0)">M</text><text xml:space="preserve" font-family="DINCondensed-Bold" font-weight="bold" font-size="28.0" fill="#222222" transform="matrix(1.00, 0.00, -0.00, -1.00, 338.8, 540.0)">L</text></g></g><path d="M 736.6 585.8 C 759.8 562.4 759.8 524.5 736.6 501.1 C 713.3 477.7 675.6 477.7 652.4 501.1 C 629.2 524.5 629.2 562.4 652.4 585.8 C 675.6 609.2 713.3 609.2 736.6 585.8 Z M 736.6 585.8 " fill="#E42731"></path><g><clipPath id="clip-1203"><path d="M 634.9 483.5 L 754.1 483.5 L 754.1 603.3 L 634.9 603.3 Z M 634.9 483.5 "></path></clipPath><g clip-path="url(#clip-1203)"><text xml:space="preserve" font-family="DINCondensed-Bold" font-weight="bold" font-size="28.0" fill="#FFFFFF" transform="matrix(1.00, 0.00, -0.00, -1.00, 677.0, 540.0)">C</text><text xml:space="preserve" font-family="DINCondensed-Bold" font-weight="bold" font-size="28.0" fill="#FFFFFF" transform="matrix(1.00, 0.00, -0.00, -1.00, 688.4, 540.0)">S</text><text xml:space="preserve" font-family="DINCondensed-Bold" font-weight="bold" font-size="28.0" fill="#FFFFFF" transform="matrix(1.00, 0.00, -0.00, -1.00, 699.8, 540.0)">S</text></g></g><path d="M 726.0 266.9 C 749.2 243.5 749.2 205.6 726.0 182.2 C 702.8 158.8 665.1 158.8 641.8 182.2 C 618.6 205.6 618.6 243.5 641.8 266.9 C 665.1 290.3 702.8 290.3 726.0 266.9 Z M 726.0 266.9 " fill="#8ABE5D"></path><g><clipPath id="clip-1204"><path d="M 624.2 164.7 L 743.6 164.7 L 743.6 284.5 L 624.2 284.5 Z M 624.2 164.7 "></path></clipPath><g clip-path="url(#clip-1204)"><text xml:space="preserve" font-family="DINCondensed-Bold" font-weight="bold" font-size="28.0" fill="#FFFFFF" transform="matrix(1.00, 0.00, -0.00, -1.00, 674.0, 221.0)">J</text><text xml:space="preserve" font-family="DINCondensed-Bold" font-weight="bold" font-size="28.0" fill="#FFFFFF" transform="matrix(1.00, 0.00, -0.00, -1.00, 683.3, 221.0)">S</text></g></g><path d="M 316.6 426.4 C 339.8 403.0 339.8 365.0 316.6 341.6 C 293.3 318.3 255.6 318.3 232.4 341.6 C 209.2 365.0 209.2 403.0 232.4 426.4 C 255.6 449.7 293.3 449.7 316.6 426.4 Z M 316.6 426.4 " fill="#9F1D75"></path><g><clipPath id="clip-1205"><path d="M 214.8 324.1 L 334.1 324.1 L 334.1 443.9 L 214.8 443.9 Z M 214.8 324.1 "></path></clipPath><g clip-path="url(#clip-1205)"><text xml:space="preserve" font-family="DINCondensed-Bold" font-weight="bold" font-size="28.0" fill="#FFFFFF" transform="matrix(1.00, 0.00, -0.00, -1.00, 263.0, 381.0)">D</text><text xml:space="preserve" font-family="DINCondensed-Bold" font-weight="bold" font-size="28.0" fill="#FFFFFF" transform="matrix(1.00, 0.00, -0.00, -1.00, 274.9, 381.0)">3</text></g></g><path d="M 407.4 457.0 L 394.2 444.7 L 447.0 425.3 L 431.5 479.4 L 418.3 467.1 L 384.4 503.6 L 373.5 493.5 Z M 407.4 457.0 " fill="#FDCA55"></path><path d="M 601.7 467.8 L 590.4 481.8 L 567.3 430.4 L 622.4 442.2 L 611.0 456.2 L 649.7 487.5 L 640.4 499.1 Z M 601.7 467.8 " fill="#E42731"></path><path d="M 428.0 299.6 L 441.6 287.7 L 455.4 342.3 L 403.2 321.2 L 416.8 309.4 L 384.1 271.9 L 395.3 262.1 Z M 428.0 299.6 " fill="#34A4DA"></path><path d="M 599.7 310.5 L 611.5 324.2 L 556.8 337.7 L 578.2 285.6 L 590.0 299.3 L 627.7 266.8 L 637.4 278.0 Z M 599.7 310.5 " fill="#8ABE5D"></path><path d="M 792.3 431.6 C 814.5 408.2 814.5 370.3 792.3 346.9 C 770.1 323.5 734.0 323.5 711.8 346.9 C 689.6 370.3 689.6 408.2 711.8 431.6 C 734.0 455.0 770.1 455.0 792.3 431.6 Z M 792.3 431.6 " fill="#FDCA55"></path><g><clipPath id="clip-1206"><path d="M 694.9 329.4 L 809.2 329.4 L 809.2 449.2 L 694.9 449.2 Z M 694.9 329.4 "></path></clipPath><g clip-path="url(#clip-1206)"><text xml:space="preserve" font-family="DINCondensed-Bold" font-weight="bold" font-size="28.0" fill="#222222" transform="matrix(1.00, 0.00, -0.00, -1.00, 707.0, 386.0)">T</text><text xml:space="preserve" font-family="DINCondensed-Bold" font-weight="bold" font-size="28.0" fill="#222222" transform="matrix(1.00, 0.00, -0.00, -1.00, 716.0, 386.0)">O</text><text xml:space="preserve" font-family="DINCondensed-Bold" font-weight="bold" font-size="28.0" fill="#222222" transform="matrix(1.00, 0.00, -0.00, -1.00, 727.9, 386.0)">P</text><text xml:space="preserve" font-family="DINCondensed-Bold" font-weight="bold" font-size="28.0" fill="#222222" transform="matrix(1.00, 0.00, -0.00, -1.00, 739.3, 386.0)">O</text><text xml:space="preserve" font-family="DINCondensed-Bold" font-weight="bold" font-size="28.0" fill="#222222" transform="matrix(1.00, 0.00, -0.00, -1.00, 751.2, 386.0)">J</text><text xml:space="preserve" font-family="DINCondensed-Bold" font-weight="bold" font-size="28.0" fill="#222222" transform="matrix(1.00, 0.00, -0.00, -1.00, 760.5, 386.0)">S</text><text xml:space="preserve" font-family="DINCondensed-Bold" font-weight="bold" font-size="28.0" fill="#222222" transform="matrix(1.00, 0.00, -0.00, -1.00, 771.9, 386.0)">O</text><text xml:space="preserve" font-family="DINCondensed-Bold" font-weight="bold" font-size="28.0" fill="#222222" transform="matrix(1.00, 0.00, -0.00, -1.00, 783.8, 386.0)">N</text></g></g><path d="M 551.6 671.8 C 574.9 648.3 574.9 610.3 551.6 586.8 C 528.3 563.4 490.4 563.4 467.1 586.8 C 443.8 610.3 443.8 648.3 467.1 671.8 C 490.4 695.3 528.3 695.3 551.6 671.8 Z M 551.6 671.8 " fill="#34A4DA"></path><g><clipPath id="clip-1207"><path d="M 449.5 569.2 L 569.2 569.2 L 569.2 689.4 L 449.5 689.4 Z M 449.5 569.2 "></path></clipPath><g clip-path="url(#clip-1207)"><text xml:space="preserve" font-family="DINCondensed-Bold" font-weight="bold" font-size="28.0" fill="#FFFFFF" transform="matrix(1.00, 0.00, -0.00, -1.00, 459.0, 626.0)">B</text><text xml:space="preserve" font-family="DINCondensed-Bold" font-weight="bold" font-size="28.0" fill="#FFFFFF" transform="matrix(1.00, 0.00, -0.00, -1.00, 470.9, 626.0)">O</text><text xml:space="preserve" font-family="DINCondensed-Bold" font-weight="bold" font-size="28.0" fill="#FFFFFF" transform="matrix(1.00, 0.00, -0.00, -1.00, 482.9, 626.0)">O</text><text xml:space="preserve" font-family="DINCondensed-Bold" font-weight="bold" font-size="28.0" fill="#FFFFFF" transform="matrix(1.00, 0.00, -0.00, -1.00, 494.4, 626.0)">T</text><text xml:space="preserve" font-family="DINCondensed-Bold" font-weight="bold" font-size="28.0" fill="#FFFFFF" transform="matrix(1.00, 0.00, -0.00, -1.00, 503.7, 626.0)">S</text><text xml:space="preserve" font-family="DINCondensed-Bold" font-weight="bold" font-size="28.0" fill="#FFFFFF" transform="matrix(1.00, 0.00, -0.00, -1.00, 515.1, 626.0)">T</text><text xml:space="preserve" font-family="DINCondensed-Bold" font-weight="bold" font-size="28.0" fill="#FFFFFF" transform="matrix(1.00, 0.00, -0.00, -1.00, 524.4, 626.0)">R</text><text xml:space="preserve" font-family="DINCondensed-Bold" font-weight="bold" font-size="28.0" fill="#FFFFFF" transform="matrix(1.00, 0.00, -0.00, -1.00, 536.3, 626.0)">A</text><text xml:space="preserve" font-family="DINCondensed-Bold" font-weight="bold" font-size="28.0" fill="#FFFFFF" transform="matrix(1.00, 0.00, -0.00, -1.00, 547.7, 626.0)">P</text></g></g><path d="M 501.9 512.2 L 483.9 512.5 L 508.4 461.8 L 534.8 511.5 L 516.8 511.9 L 517.7 561.6 L 502.9 561.9 Z M 501.9 512.2 " fill="#34A4DA"></path><path d="M 630.4 391.4 L 630.3 409.5 L 580.2 383.8 L 630.5 358.5 L 630.4 376.6 L 680.2 376.8 L 680.1 391.7 Z M 630.4 391.4 " fill="#FDCA55"></path><path d="M 551.4 191.8 C 574.7 168.4 574.7 130.5 551.4 107.1 C 528.2 83.7 490.5 83.7 467.3 107.1 C 444.0 130.5 444.0 168.4 467.3 191.8 C 490.5 215.2 528.2 215.2 551.4 191.8 Z M 551.4 191.8 " fill="#E42731"></path><g><clipPath id="clip-1208"><path d="M 449.6 89.5 L 569.1 89.5 L 569.1 209.3 L 449.6 209.3 Z M 449.6 89.5 "></path></clipPath><g clip-path="url(#clip-1208)"><text xml:space="preserve" font-family="DINCondensed-Bold" font-weight="bold" font-size="28.0" fill="#FFFFFF" transform="matrix(1.00, 0.00, -0.00, -1.00, 475.0, 146.0)">P</text><text xml:space="preserve" font-family="DINCondensed-Bold" font-weight="bold" font-size="28.0" fill="#FFFFFF" transform="matrix(1.00, 0.00, -0.00, -1.00, 485.4, 146.0)">A</text><text xml:space="preserve" font-family="DINCondensed-Bold" font-weight="bold" font-size="28.0" fill="#FFFFFF" transform="matrix(1.00, 0.00, -0.00, -1.00, 496.8, 146.0)">N</text><text xml:space="preserve" font-family="DINCondensed-Bold" font-weight="bold" font-size="28.0" fill="#FFFFFF" transform="matrix(1.00, 0.00, -0.00, -1.00, 509.2, 146.0)">D</text><text xml:space="preserve" font-family="DINCondensed-Bold" font-weight="bold" font-size="28.0" fill="#FFFFFF" transform="matrix(1.00, 0.00, -0.00, -1.00, 520.8, 146.0)">A</text><text xml:space="preserve" font-family="DINCondensed-Bold" font-weight="bold" font-size="28.0" fill="#FFFFFF" transform="matrix(1.00, 0.00, -0.00, -1.00, 532.2, 146.0)">S</text></g></g><path d="M 519.4 266.6 L 537.5 266.9 L 511.3 316.8 L 486.5 266.2 L 504.6 266.4 L 505.3 216.7 L 520.1 216.9 Z M 519.4 266.6 " fill="#E42731"></path><path d="M 388.2 376.6 L 387.9 358.5 L 438.5 383.1 L 388.7 409.5 L 388.4 391.4 L 338.7 392.3 L 338.4 377.5 Z M 388.2 376.6 " fill="#9F1D75"></path><path d="M 556.3 436.2 C 582.3 410.3 582.3 368.2 556.3 342.3 C 530.4 316.4 488.3 316.4 462.4 342.3 C 436.4 368.2 436.4 410.3 462.4 436.2 C 488.3 462.2 530.4 462.2 556.3 436.2 Z M 556.3 436.2 " fill="#FEFFFE"></path><g><clipPath id="clip-1209"><path d="M 442.5 322.8 L 576.2 322.8 L 576.2 455.7 L 442.5 455.7 Z M 442.5 322.8 "></path></clipPath><g clip-path="url(#clip-1209)"><text xml:space="preserve" font-family="DINCondensed-Bold" font-weight="bold" font-size="28.0" fill="#000000" transform="matrix(1.00, 0.00, -0.00, -1.00, 474.0, 386.0)">V</text><text xml:space="preserve" font-family="DINCondensed-Bold" font-weight="bold" font-size="28.0" fill="#000000" transform="matrix(1.00, 0.00, -0.00, -1.00, 484.4, 386.0)">A</text><text xml:space="preserve" font-family="DINCondensed-Bold" font-weight="bold" font-size="28.0" fill="#000000" transform="matrix(1.00, 0.00, -0.00, -1.00, 495.8, 386.0)">C</text><text xml:space="preserve" font-family="DINCondensed-Bold" font-weight="bold" font-size="28.0" fill="#000000" transform="matrix(1.00, 0.00, -0.00, -1.00, 507.2, 386.0)">M</text><text xml:space="preserve" font-family="DINCondensed-Bold" font-weight="bold" font-size="28.0" fill="#000000" transform="matrix(1.00, 0.00, -0.00, -1.00, 522.7, 386.0)">A</text><text xml:space="preserve" font-family="DINCondensed-Bold" font-weight="bold" font-size="28.0" fill="#000000" transform="matrix(1.00, 0.00, -0.00, -1.00, 534.1, 386.0)">P</text></g></g></g></svg>