<?xml version="1.0" encoding="UTF-8" standalone="no"?><svg xmlns="http://www.w3.org/2000/svg" xmlns:xlink="http://www.w3.org/1999/xlink" clip-rule="evenodd" stroke-miterlimit="4.00" viewBox="0 0 64 28"><desc>SVG generated by Keynote</desc><defs></defs><g transform="matrix(1.00, 0.00, -0.00, -1.00, 0.0, 28.0)"><text xml:space="preserve" font-family="AvenirNext-Medium" font-size="20.0" fill="#34A4DA" transform="matrix(1.00, 0.00, -0.00, -1.00, 2.0, 7.0)">s</text><text xml:space="preserve" font-family="AvenirNext-Medium" font-size="20.0" fill="#34A4DA" transform="matrix(1.00, 0.00, -0.00, -1.00, 10.9, 7.0)">o</text><text xml:space="preserve" font-family="AvenirNext-Medium" font-size="20.0" fill="#34A4DA" transform="matrix(1.00, 0.00, -0.00, -1.00, 23.1, 7.0)">u</text><text xml:space="preserve" font-family="AvenirNext-Medium" font-size="20.0" fill="#34A4DA" transform="matrix(1.00, 0.00, -0.00, -1.00, 34.7, 7.0)">r</text><text xml:space="preserve" font-family="AvenirNext-Medium" font-size="20.0" fill="#34A4DA" transform="matrix(1.00, 0.00, -0.00, -1.00, 41.6, 7.0)">c</text><text xml:space="preserve" font-family="AvenirNext-Medium" font-size="20.0" fill="#34A4DA" transform="matrix(1.00, 0.00, -0.00, -1.00, 51.5, 7.0)">e</text><g><clipPath id="clip-1087"><path d="M 0.7 4.5 L 62.7 4.5 L 62.7 7.5 L 0.7 7.5 Z M 0.7 4.5 "></path></clipPath><g clip-path="url(#clip-1087)"><path d="M 4.0 25.2 L 64.9 25.2 " fill="none" stroke="#34A4DA" stroke-width="1.00" stroke-miterlimit="0.00" transform="matrix(1.00, 0.00, 0.00, -1.00, -2.3, 31.2)"></path></g></g></g></svg>