<?xml version="1.0" encoding="UTF-8" standalone="no"?><svg xmlns="http://www.w3.org/2000/svg" xmlns:xlink="http://www.w3.org/1999/xlink" clip-rule="evenodd" stroke-miterlimit="4.00" viewBox="0 0 1024 768"><desc>SVG generated by Keynote</desc><defs></defs><g transform="matrix(1.00, 0.00, -0.00, -1.00, 0.0, 768.0)"><path d="M 0.0 768.0 L 1024.0 768.0 L 1024.0 0.0 L 0.0 0.0 Z M 0.0 768.0 " fill="#212121"></path><image xlink:href="../../04E9A70E-01D2-4ED5-BABE-CA47EF990782/assets/75049967FBE634B4D4D0C05F85AC0F2E.png" width="640.00" height="360.00" transform="matrix(1.39, 0.00, -0.00, -1.39, 68.0, 634.0)"></image><text xml:space="preserve" font-family="AvenirNext-Medium" font-size="20.0" fill="#34A4DA" transform="matrix(1.00, 0.00, -0.00, -1.00, 915.0, 38.0)">s</text><text xml:space="preserve" font-family="AvenirNext-Medium" font-size="20.0" fill="#34A4DA" transform="matrix(1.00, 0.00, -0.00, -1.00, 923.9, 38.0)">o</text><text xml:space="preserve" font-family="AvenirNext-Medium" font-size="20.0" fill="#34A4DA" transform="matrix(1.00, 0.00, -0.00, -1.00, 936.1, 38.0)">u</text><text xml:space="preserve" font-family="AvenirNext-Medium" font-size="20.0" fill="#34A4DA" transform="matrix(1.00, 0.00, -0.00, -1.00, 947.7, 38.0)">r</text><text xml:space="preserve" font-family="AvenirNext-Medium" font-size="20.0" fill="#34A4DA" transform="matrix(1.00, 0.00, -0.00, -1.00, 954.6, 38.0)">c</text><text xml:space="preserve" font-family="AvenirNext-Medium" font-size="20.0" fill="#34A4DA" transform="matrix(1.00, 0.00, -0.00, -1.00, 964.5, 38.0)">e</text><g><clipPath id="clip-1088"><path d="M 913.7 35.5 L 975.7 35.5 L 975.7 38.5 L 913.7 38.5 Z M 913.7 35.5 "></path></clipPath><g clip-path="url(#clip-1088)"><path d="M 4.0 25.2 L 64.9 25.2 " fill="none" stroke="#34A4DA" stroke-width="1.00" stroke-miterlimit="0.00" transform="matrix(1.00, 0.00, 0.00, -1.00, 910.7, 62.2)"></path></g></g></g></svg>