<?xml version="1.0" encoding="UTF-8" standalone="no"?><svg xmlns="http://www.w3.org/2000/svg" xmlns:xlink="http://www.w3.org/1999/xlink" clip-rule="evenodd" stroke-miterlimit="4.00" viewBox="0 0 1024 768"><desc>SVG generated by Keynote</desc><defs></defs><g transform="matrix(1.00, 0.00, -0.00, -1.00, 0.0, 768.0)"><path d="M 0.0 768.0 L 1024.0 768.0 L 1024.0 0.0 L 0.0 0.0 Z M 0.0 768.0 " fill="#FFFFFF"></path><path d="M 0.0 0.0 L 960.0 0.0 " fill="none" stroke="#A6AAA8" stroke-width="3.00" transform="matrix(1.00, 0.00, 0.00, -1.00, 32.0, 284.5)"></path><image xlink:href="29F4AA468755F115C5E8BB92AD0DB342.png" width="879.00" height="540.00" transform="matrix(1.04, 0.00, -0.00, -1.04, 54.0, 747.0)"></image><text xml:space="preserve" font-family="DINCondensed-Bold" font-weight="bold" font-size="115.6" fill="#34A4DA" transform="matrix(1.00, 0.00, -0.00, -1.00, 36.0, 104.0)">I</text><text xml:space="preserve" font-family="DINCondensed-Bold" font-weight="bold" font-size="115.6" fill="#34A4DA" transform="matrix(1.00, 0.00, -0.00, -1.00, 59.6, 104.0)">N</text><text xml:space="preserve" font-family="DINCondensed-Bold" font-weight="bold" font-size="115.6" fill="#34A4DA" transform="matrix(1.00, 0.00, -0.00, -1.00, 110.9, 104.0)">T</text><text xml:space="preserve" font-family="DINCondensed-Bold" font-weight="bold" font-size="115.6" fill="#34A4DA" transform="matrix(1.00, 0.00, -0.00, -1.00, 149.3, 104.0)">R</text><text xml:space="preserve" font-family="DINCondensed-Bold" font-weight="bold" font-size="115.6" fill="#34A4DA" transform="matrix(1.00, 0.00, -0.00, -1.00, 198.5, 104.0)">O</text><text xml:space="preserve" font-family="DINCondensed-Bold" font-weight="bold" font-size="115.6" fill="#34A4DA" transform="matrix(1.00, 0.00, -0.00, -1.00, 247.8, 104.0)">D</text><text xml:space="preserve" font-family="DINCondensed-Bold" font-weight="bold" font-size="115.6" fill="#34A4DA" transform="matrix(1.00, 0.00, -0.00, -1.00, 297.0, 104.0)">U</text><text xml:space="preserve" font-family="DINCondensed-Bold" font-weight="bold" font-size="115.6" fill="#34A4DA" transform="matrix(1.00, 0.00, -0.00, -1.00, 346.3, 104.0)">C</text><text xml:space="preserve" font-family="DINCondensed-Bold" font-weight="bold" font-size="115.6" fill="#34A4DA" transform="matrix(1.00, 0.00, -0.00, -1.00, 393.3, 104.0)">T</text><text xml:space="preserve" font-family="DINCondensed-Bold" font-weight="bold" font-size="115.6" fill="#34A4DA" transform="matrix(1.00, 0.00, -0.00, -1.00, 431.7, 104.0)">I</text><text xml:space="preserve" font-family="DINCondensed-Bold" font-weight="bold" font-size="115.6" fill="#34A4DA" transform="matrix(1.00, 0.00, -0.00, -1.00, 455.3, 104.0)">O</text><text xml:space="preserve" font-family="DINCondensed-Bold" font-weight="bold" font-size="115.6" fill="#34A4DA" transform="matrix(1.00, 0.00, -0.00, -1.00, 504.5, 104.0)">N</text><text xml:space="preserve" font-family="DINCondensed-Bold" font-weight="bold" font-size="115.6" fill="#34A4DA" transform="matrix(1.00, 0.00, -0.00, -1.00, 555.9, 104.0)"> </text><text xml:space="preserve" font-family="DINCondensed-Bold" font-weight="bold" font-size="115.6" fill="#34A4DA" transform="matrix(1.00, 0.00, -0.00, -1.00, 577.4, 104.0)">T</text><text xml:space="preserve" font-family="DINCondensed-Bold" font-weight="bold" font-size="115.6" fill="#34A4DA" transform="matrix(1.00, 0.00, -0.00, -1.00, 614.3, 104.0)">O</text><text xml:space="preserve" font-family="DINCondensed-Bold" font-weight="bold" font-size="115.6" fill="#34A4DA" transform="matrix(1.00, 0.00, -0.00, -1.00, 663.6, 104.0)"> </text><text xml:space="preserve" font-family="DINCondensed-Bold" font-weight="bold" font-size="115.6" fill="#34A4DA" transform="matrix(1.00, 0.00, -0.00, -1.00, 685.1, 104.0)">V</text><text xml:space="preserve" font-family="DINCondensed-Bold" font-weight="bold" font-size="115.6" fill="#34A4DA" transform="matrix(1.00, 0.00, -0.00, -1.00, 727.9, 104.0)">A</text><text xml:space="preserve" font-family="DINCondensed-Bold" font-weight="bold" font-size="115.6" fill="#34A4DA" transform="matrix(1.00, 0.00, -0.00, -1.00, 774.9, 104.0)">C</text><text xml:space="preserve" font-family="DINCondensed-Bold" font-weight="bold" font-size="115.6" fill="#34A4DA" transform="matrix(1.00, 0.00, -0.00, -1.00, 822.0, 104.0)">M</text><text xml:space="preserve" font-family="DINCondensed-Bold" font-weight="bold" font-size="115.6" fill="#34A4DA" transform="matrix(1.00, 0.00, -0.00, -1.00, 886.2, 104.0)">A</text><text xml:space="preserve" font-family="DINCondensed-Bold" font-weight="bold" font-size="115.6" fill="#34A4DA" transform="matrix(1.00, 0.00, -0.00, -1.00, 933.3, 104.0)">P</text><g><clipPath id="clip-972"><path d="M 684.1 91.6 L 980.3 91.6 L 980.3 99.4 L 684.1 99.4 Z M 684.1 91.6 "></path></clipPath><g clip-path="url(#clip-972)"><path d="M 653.1 94.3 L 948.3 94.3 " fill="none" stroke="#34A4DA" stroke-width="5.78" stroke-miterlimit="0.00" transform="matrix(1.00, 0.00, 0.00, -1.00, 32.0, 189.7)"></path></g></g></g></svg>