<?xml version="1.0" encoding="UTF-8" standalone="no"?><svg xmlns="http://www.w3.org/2000/svg" xmlns:xlink="http://www.w3.org/1999/xlink" clip-rule="evenodd" stroke-miterlimit="4.00" viewBox="0 0 1024 768"><desc>SVG generated by Keynote</desc><defs></defs><g transform="matrix(1.00, 0.00, -0.00, -1.00, 0.0, 768.0)"><path d="M 0.0 768.0 L 1024.0 768.0 L 1024.0 0.0 L 0.0 0.0 Z M 0.0 768.0 " fill="#212121"></path><path d="M 367.8 266.9 C 391.1 243.5 391.1 205.6 367.8 182.2 C 344.6 158.8 306.9 158.8 283.7 182.2 C 260.4 205.6 260.4 243.5 283.7 266.9 C 306.9 290.3 344.6 290.3 367.8 266.9 Z M 367.8 266.9 " fill="#34A4DA"></path><g><clipPath id="clip-1104"><path d="M 266.0 164.7 L 385.6 164.7 L 385.6 284.5 L 266.0 284.5 Z M 266.0 164.7 "></path></clipPath><g clip-path="url(#clip-1104)"><text xml:space="preserve" font-family="DINCondensed-Bold" font-weight="bold" font-size="28.0" fill="#FFFFFF" transform="matrix(1.00, 0.00, -0.00, -1.00, 308.0, 221.0)">S</text><text xml:space="preserve" font-family="DINCondensed-Bold" font-weight="bold" font-size="28.0" fill="#FFFFFF" transform="matrix(1.00, 0.00, -0.00, -1.00, 319.4, 221.0)">V</text><text xml:space="preserve" font-family="DINCondensed-Bold" font-weight="bold" font-size="28.0" fill="#FFFFFF" transform="matrix(1.00, 0.00, -0.00, -1.00, 330.8, 221.0)">G</text></g></g><path d="M 367.8 585.8 C 391.1 562.4 391.1 524.5 367.8 501.1 C 344.6 477.7 306.9 477.7 283.7 501.1 C 260.4 524.5 260.4 562.4 283.7 585.8 C 306.9 609.2 344.6 609.2 367.8 585.8 Z M 367.8 585.8 " fill="#FDCA55"></path><g><clipPath id="clip-1105"><path d="M 266.1 483.5 L 385.5 483.5 L 385.5 603.3 L 266.1 603.3 Z M 266.1 483.5 "></path></clipPath><g clip-path="url(#clip-1105)"><text xml:space="preserve" font-family="DINCondensed-Bold" font-weight="bold" font-size="28.0" fill="#222222" transform="matrix(1.00, 0.00, -0.00, -1.00, 302.0, 540.0)">H</text><text xml:space="preserve" font-family="DINCondensed-Bold" font-weight="bold" font-size="28.0" fill="#222222" transform="matrix(1.00, 0.00, -0.00, -1.00, 313.9, 540.0)">T</text><text xml:space="preserve" font-family="DINCondensed-Bold" font-weight="bold" font-size="28.0" fill="#222222" transform="matrix(1.00, 0.00, -0.00, -1.00, 323.2, 540.0)">M</text><text xml:space="preserve" font-family="DINCondensed-Bold" font-weight="bold" font-size="28.0" fill="#222222" transform="matrix(1.00, 0.00, -0.00, -1.00, 338.8, 540.0)">L</text></g></g><path d="M 736.6 585.8 C 759.8 562.4 759.8 524.5 736.6 501.1 C 713.3 477.7 675.6 477.7 652.4 501.1 C 629.2 524.5 629.2 562.4 652.4 585.8 C 675.6 609.2 713.3 609.2 736.6 585.8 Z M 736.6 585.8 " fill="#E42731"></path><g><clipPath id="clip-1106"><path d="M 634.9 483.5 L 754.1 483.5 L 754.1 603.3 L 634.9 603.3 Z M 634.9 483.5 "></path></clipPath><g clip-path="url(#clip-1106)"><text xml:space="preserve" font-family="DINCondensed-Bold" font-weight="bold" font-size="28.0" fill="#FFFFFF" transform="matrix(1.00, 0.00, -0.00, -1.00, 677.0, 540.0)">C</text><text xml:space="preserve" font-family="DINCondensed-Bold" font-weight="bold" font-size="28.0" fill="#FFFFFF" transform="matrix(1.00, 0.00, -0.00, -1.00, 688.4, 540.0)">S</text><text xml:space="preserve" font-family="DINCondensed-Bold" font-weight="bold" font-size="28.0" fill="#FFFFFF" transform="matrix(1.00, 0.00, -0.00, -1.00, 699.8, 540.0)">S</text></g></g><path d="M 407.4 457.0 L 394.2 444.7 L 447.0 425.3 L 431.5 479.4 L 418.3 467.1 L 384.4 503.6 L 373.5 493.5 Z M 407.4 457.0 " fill="#FDCA55"></path><path d="M 726.0 266.9 C 749.2 243.5 749.2 205.6 726.0 182.2 C 702.8 158.8 665.1 158.8 641.8 182.2 C 618.6 205.6 618.6 243.5 641.8 266.9 C 665.1 290.3 702.8 290.3 726.0 266.9 Z M 726.0 266.9 " fill="#8ABE5D"></path><g><clipPath id="clip-1107"><path d="M 624.2 164.7 L 743.6 164.7 L 743.6 284.5 L 624.2 284.5 Z M 624.2 164.7 "></path></clipPath><g clip-path="url(#clip-1107)"><text xml:space="preserve" font-family="DINCondensed-Bold" font-weight="bold" font-size="28.0" fill="#FFFFFF" transform="matrix(1.00, 0.00, -0.00, -1.00, 674.0, 221.0)">J</text><text xml:space="preserve" font-family="DINCondensed-Bold" font-weight="bold" font-size="28.0" fill="#FFFFFF" transform="matrix(1.00, 0.00, -0.00, -1.00, 683.3, 221.0)">S</text></g></g><path d="M 599.7 310.5 L 611.5 324.2 L 556.8 337.7 L 578.2 285.6 L 590.0 299.3 L 627.7 266.8 L 637.4 278.0 Z M 599.7 310.5 " fill="#8ABE5D"></path><path d="M 601.7 467.8 L 590.4 481.8 L 567.3 430.4 L 622.4 442.2 L 611.0 456.2 L 649.7 487.5 L 640.4 499.1 Z M 601.7 467.8 " fill="#E42731"></path><path d="M 428.0 299.6 L 441.6 287.7 L 455.4 342.3 L 403.2 321.2 L 416.8 309.4 L 384.1 271.9 L 395.3 262.1 Z M 428.0 299.6 " fill="#34A4DA"></path><path d="M 556.3 436.2 C 582.3 410.3 582.3 368.2 556.3 342.3 C 530.4 316.4 488.3 316.4 462.4 342.3 C 436.4 368.2 436.4 410.3 462.4 436.2 C 488.3 462.2 530.4 462.2 556.3 436.2 Z M 556.3 436.2 " fill="#9F1D75"></path><g><clipPath id="clip-1108"><path d="M 442.6 322.8 L 576.1 322.8 L 576.1 455.7 L 442.6 455.7 Z M 442.6 322.8 "></path></clipPath><g clip-path="url(#clip-1108)"><text xml:space="preserve" font-family="DINCondensed-Bold" font-weight="bold" font-size="28.0" fill="#FFFFFF" transform="matrix(1.00, 0.00, -0.00, -1.00, 498.0, 386.0)">D</text><text xml:space="preserve" font-family="DINCondensed-Bold" font-weight="bold" font-size="28.0" fill="#FFFFFF" transform="matrix(1.00, 0.00, -0.00, -1.00, 509.9, 386.0)">3</text></g></g></g></svg>