<?xml version="1.0" encoding="UTF-8" standalone="no"?><svg xmlns="http://www.w3.org/2000/svg" xmlns:xlink="http://www.w3.org/1999/xlink" clip-rule="evenodd" stroke-miterlimit="4.00" viewBox="0 0 1024 768"><desc>SVG generated by Keynote</desc><defs></defs><g transform="matrix(1.00, 0.00, -0.00, -1.00, 0.0, 768.0)"><path d="M 0.0 768.0 L 1024.0 768.0 L 1024.0 0.0 L 0.0 0.0 Z M 0.0 768.0 " fill="#212121"></path><path d="M 0.0 0.0 L 960.0 0.0 " fill="none" stroke="#A6AAA9" stroke-width="2.00" transform="matrix(1.00, 0.00, 0.00, -1.00, 32.0, 689.8)"></path><text xml:space="preserve" font-family="DINAlternate-Bold" font-weight="bold" font-size="24.0" fill="#838686" transform="matrix(1.00, 0.00, -0.00, -1.00, 36.0, 705.0)">N</text><text xml:space="preserve" font-family="DINAlternate-Bold" font-weight="bold" font-size="24.0" fill="#838686" transform="matrix(1.00, 0.00, -0.00, -1.00, 53.6, 705.0)">U</text><text xml:space="preserve" font-family="DINAlternate-Bold" font-weight="bold" font-size="24.0" fill="#838686" transform="matrix(1.00, 0.00, -0.00, -1.00, 69.9, 705.0)">T</text><text xml:space="preserve" font-family="DINAlternate-Bold" font-weight="bold" font-size="24.0" fill="#838686" transform="matrix(1.00, 0.00, -0.00, -1.00, 83.1, 705.0)">S</text><text xml:space="preserve" font-family="DINAlternate-Bold" font-weight="bold" font-size="24.0" fill="#838686" transform="matrix(1.00, 0.00, -0.00, -1.00, 98.1, 705.0)">H</text><text xml:space="preserve" font-family="DINAlternate-Bold" font-weight="bold" font-size="24.0" fill="#838686" transform="matrix(1.00, 0.00, -0.00, -1.00, 114.9, 705.0)">E</text><text xml:space="preserve" font-family="DINAlternate-Bold" font-weight="bold" font-size="24.0" fill="#838686" transform="matrix(1.00, 0.00, -0.00, -1.00, 129.4, 705.0)">L</text><text xml:space="preserve" font-family="DINAlternate-Bold" font-weight="bold" font-size="24.0" fill="#838686" transform="matrix(1.00, 0.00, -0.00, -1.00, 144.0, 705.0)">L</text><text xml:space="preserve" font-family="DINAlternate-Bold" font-weight="bold" font-size="24.0" fill="#838686" transform="matrix(1.00, 0.00, -0.00, -1.00, 158.5, 705.0)"> </text><text xml:space="preserve" font-family="DINAlternate-Bold" font-weight="bold" font-size="24.0" fill="#838686" transform="matrix(1.00, 0.00, -0.00, -1.00, 165.5, 705.0)">D</text><text xml:space="preserve" font-family="DINAlternate-Bold" font-weight="bold" font-size="24.0" fill="#838686" transform="matrix(1.00, 0.00, -0.00, -1.00, 181.8, 705.0)">3</text><text xml:space="preserve" font-family="DINCondensed-Bold" font-weight="bold" font-size="48.0" fill="#34A4DA" transform="matrix(1.00, 0.00, -0.00, -1.00, 36.0, 608.0)">D</text><text xml:space="preserve" font-family="DINCondensed-Bold" font-weight="bold" font-size="48.0" fill="#34A4DA" transform="matrix(1.00, 0.00, -0.00, -1.00, 55.9, 608.0)">A</text><text xml:space="preserve" font-family="DINCondensed-Bold" font-weight="bold" font-size="48.0" fill="#34A4DA" transform="matrix(1.00, 0.00, -0.00, -1.00, 72.8, 608.0)">T</text><text xml:space="preserve" font-family="DINCondensed-Bold" font-weight="bold" font-size="48.0" fill="#34A4DA" transform="matrix(1.00, 0.00, -0.00, -1.00, 86.1, 608.0)">A</text><text xml:space="preserve" font-family="DINCondensed-Bold" font-weight="bold" font-size="48.0" fill="#34A4DA" transform="matrix(1.00, 0.00, -0.00, -1.00, 105.6, 608.0)"> </text><text xml:space="preserve" font-family="DINCondensed-Bold" font-weight="bold" font-size="48.0" fill="#34A4DA" transform="matrix(1.00, 0.00, -0.00, -1.00, 114.5, 608.0)">B</text><text xml:space="preserve" font-family="DINCondensed-Bold" font-weight="bold" font-size="48.0" fill="#34A4DA" transform="matrix(1.00, 0.00, -0.00, -1.00, 135.0, 608.0)">I</text><text xml:space="preserve" font-family="DINCondensed-Bold" font-weight="bold" font-size="48.0" fill="#34A4DA" transform="matrix(1.00, 0.00, -0.00, -1.00, 144.8, 608.0)">N</text><text xml:space="preserve" font-family="DINCondensed-Bold" font-weight="bold" font-size="48.0" fill="#34A4DA" transform="matrix(1.00, 0.00, -0.00, -1.00, 166.1, 608.0)">D</text><text xml:space="preserve" font-family="DINCondensed-Bold" font-weight="bold" font-size="48.0" fill="#34A4DA" transform="matrix(1.00, 0.00, -0.00, -1.00, 186.5, 608.0)">I</text><text xml:space="preserve" font-family="DINCondensed-Bold" font-weight="bold" font-size="48.0" fill="#34A4DA" transform="matrix(1.00, 0.00, -0.00, -1.00, 196.3, 608.0)">N</text><text xml:space="preserve" font-family="DINCondensed-Bold" font-weight="bold" font-size="48.0" fill="#34A4DA" transform="matrix(1.00, 0.00, -0.00, -1.00, 217.6, 608.0)">G</text><text xml:space="preserve" font-family="AvenirNext-Medium" font-size="28.0" fill="#838686" transform="matrix(1.00, 0.00, -0.00, -1.00, 41.5, 518.7)">1</text><text xml:space="preserve" font-family="AvenirNext-Medium" font-size="28.0" fill="#838686" transform="matrix(1.00, 0.00, -0.00, -1.00, 58.2, 518.7)">.</text><text xml:space="preserve" font-family="AvenirNext-Medium" font-size="28.0" fill="#2488BE" transform="matrix(1.00, 0.00, -0.00, -1.00, 84.0, 519.0)">D</text><text xml:space="preserve" font-family="AvenirNext-Medium" font-size="28.0" fill="#2488BE" transform="matrix(1.00, 0.00, -0.00, -1.00, 105.3, 519.0)">a</text><text xml:space="preserve" font-family="AvenirNext-Medium" font-size="28.0" fill="#2488BE" transform="matrix(1.00, 0.00, -0.00, -1.00, 120.2, 519.0)">t</text><text xml:space="preserve" font-family="AvenirNext-Medium" font-size="28.0" fill="#2488BE" transform="matrix(1.00, 0.00, -0.00, -1.00, 129.4, 519.0)">a</text><text xml:space="preserve" font-family="AvenirNext-Medium" font-size="28.0" fill="#2488BE" transform="matrix(1.00, 0.00, -0.00, -1.00, 144.6, 519.0)"> </text><text xml:space="preserve" font-family="AvenirNext-Medium" font-size="28.0" fill="#2488BE" transform="matrix(1.00, 0.00, -0.00, -1.00, 151.6, 519.0)">j</text><text xml:space="preserve" font-family="AvenirNext-Medium" font-size="28.0" fill="#2488BE" transform="matrix(1.00, 0.00, -0.00, -1.00, 158.9, 519.0)">o</text><text xml:space="preserve" font-family="AvenirNext-Medium" font-size="28.0" fill="#2488BE" transform="matrix(1.00, 0.00, -0.00, -1.00, 176.0, 519.0)">i</text><text xml:space="preserve" font-family="AvenirNext-Medium" font-size="28.0" fill="#2488BE" transform="matrix(1.00, 0.00, -0.00, -1.00, 183.2, 519.0)">n</text><text xml:space="preserve" font-family="AvenirNext-Medium" font-size="28.0" fill="#838686" transform="matrix(1.00, 0.00, -0.00, -1.00, 199.5, 519.0)"> </text><text xml:space="preserve" font-family="AvenirNext-Medium" font-size="28.0" fill="#838686" transform="matrix(1.00, 0.00, -0.00, -1.00, 206.5, 519.0)">=</text><text xml:space="preserve" font-family="AvenirNext-Medium" font-size="28.0" fill="#838686" transform="matrix(1.00, 0.00, -0.00, -1.00, 225.1, 519.0)"> </text><text xml:space="preserve" font-family="AvenirNext-Medium" font-size="28.0" fill="#838686" transform="matrix(1.00, 0.00, -0.00, -1.00, 232.1, 519.0)">j</text><text xml:space="preserve" font-family="AvenirNext-Medium" font-size="28.0" fill="#838686" transform="matrix(1.00, 0.00, -0.00, -1.00, 239.4, 519.0)">o</text><text xml:space="preserve" font-family="AvenirNext-Medium" font-size="28.0" fill="#838686" transform="matrix(1.00, 0.00, -0.00, -1.00, 256.5, 519.0)">i</text><text xml:space="preserve" font-family="AvenirNext-Medium" font-size="28.0" fill="#838686" transform="matrix(1.00, 0.00, -0.00, -1.00, 263.8, 519.0)">n</text><text xml:space="preserve" font-family="AvenirNext-Medium" font-size="28.0" fill="#838686" transform="matrix(1.00, 0.00, -0.00, -1.00, 280.1, 519.0)">e</text><text xml:space="preserve" font-family="AvenirNext-Medium" font-size="28.0" fill="#838686" transform="matrix(1.00, 0.00, -0.00, -1.00, 296.1, 519.0)">d</text><text xml:space="preserve" font-family="AvenirNext-Medium" font-size="28.0" fill="#838686" transform="matrix(1.00, 0.00, -0.00, -1.00, 313.9, 519.0)"> </text><text xml:space="preserve" font-family="AvenirNext-Medium" font-size="28.0" fill="#838686" transform="matrix(1.00, 0.00, -0.00, -1.00, 320.9, 519.0)">t</text><text xml:space="preserve" font-family="AvenirNext-Medium" font-size="28.0" fill="#838686" transform="matrix(1.00, 0.00, -0.00, -1.00, 330.1, 519.0)">o</text><text xml:space="preserve" font-family="AvenirNext-Medium" font-size="28.0" fill="#838686" transform="matrix(1.00, 0.00, -0.00, -1.00, 347.2, 519.0)"> </text><text xml:space="preserve" font-family="AvenirNext-Medium" font-size="28.0" fill="#838686" transform="matrix(1.00, 0.00, -0.00, -1.00, 354.2, 519.0)">g</text><text xml:space="preserve" font-family="AvenirNext-Medium" font-size="28.0" fill="#838686" transform="matrix(1.00, 0.00, -0.00, -1.00, 371.9, 519.0)">r</text><text xml:space="preserve" font-family="AvenirNext-Medium" font-size="28.0" fill="#838686" transform="matrix(1.00, 0.00, -0.00, -1.00, 381.5, 519.0)">o</text><text xml:space="preserve" font-family="AvenirNext-Medium" font-size="28.0" fill="#838686" transform="matrix(1.00, 0.00, -0.00, -1.00, 398.6, 519.0)">u</text><text xml:space="preserve" font-family="AvenirNext-Medium" font-size="28.0" fill="#838686" transform="matrix(1.00, 0.00, -0.00, -1.00, 414.9, 519.0)">p</text><text xml:space="preserve" font-family="AvenirNext-Medium" font-size="28.0" fill="#838686" transform="matrix(1.00, 0.00, -0.00, -1.00, 432.6, 519.0)">s</text><text xml:space="preserve" font-family="AvenirNext-Medium" font-size="28.0" fill="#838686" transform="matrix(1.00, 0.00, -0.00, -1.00, 445.1, 519.0)"> </text><text xml:space="preserve" font-family="AvenirNext-Medium" font-size="28.0" fill="#838686" transform="matrix(1.00, 0.00, -0.00, -1.00, 452.1, 519.0)">v</text><text xml:space="preserve" font-family="AvenirNext-Medium" font-size="28.0" fill="#838686" transform="matrix(1.00, 0.00, -0.00, -1.00, 466.2, 519.0)">i</text><text xml:space="preserve" font-family="AvenirNext-Medium" font-size="28.0" fill="#838686" transform="matrix(1.00, 0.00, -0.00, -1.00, 473.4, 519.0)">a</text><text xml:space="preserve" font-family="AvenirNext-Medium" font-size="28.0" fill="#838686" transform="matrix(1.00, 0.00, -0.00, -1.00, 488.6, 519.0)"> </text><text xml:space="preserve" font-family="AvenirNext-Medium" font-size="28.0" fill="#838686" transform="matrix(1.00, 0.00, -0.00, -1.00, 84.0, 481.0)">s</text><text xml:space="preserve" font-family="AvenirNext-Medium" font-size="28.0" fill="#838686" transform="matrix(1.00, 0.00, -0.00, -1.00, 96.4, 481.0)">e</text><text xml:space="preserve" font-family="AvenirNext-Medium" font-size="28.0" fill="#838686" transform="matrix(1.00, 0.00, -0.00, -1.00, 112.5, 481.0)">l</text><text xml:space="preserve" font-family="AvenirNext-Medium" font-size="28.0" fill="#838686" transform="matrix(1.00, 0.00, -0.00, -1.00, 119.8, 481.0)">e</text><text xml:space="preserve" font-family="AvenirNext-Medium" font-size="28.0" fill="#838686" transform="matrix(1.00, 0.00, -0.00, -1.00, 135.8, 481.0)">c</text><text xml:space="preserve" font-family="AvenirNext-Medium" font-size="28.0" fill="#838686" transform="matrix(1.00, 0.00, -0.00, -1.00, 149.6, 481.0)">t</text><text xml:space="preserve" font-family="AvenirNext-Medium" font-size="28.0" fill="#838686" transform="matrix(1.00, 0.00, -0.00, -1.00, 158.8, 481.0)">i</text><text xml:space="preserve" font-family="AvenirNext-Medium" font-size="28.0" fill="#838686" transform="matrix(1.00, 0.00, -0.00, -1.00, 166.1, 481.0)">o</text><text xml:space="preserve" font-family="AvenirNext-Medium" font-size="28.0" fill="#838686" transform="matrix(1.00, 0.00, -0.00, -1.00, 183.2, 481.0)">n</text><text xml:space="preserve" font-family="AvenirNext-Medium" font-size="28.0" fill="#838686" transform="matrix(1.00, 0.00, -0.00, -1.00, 199.5, 481.0)">.</text><text xml:space="preserve" font-family="AvenirNext-Medium" font-size="28.0" fill="#2488BE" transform="matrix(1.00, 0.00, -0.00, -1.00, 206.8, 481.0)">d</text><text xml:space="preserve" font-family="AvenirNext-Medium" font-size="28.0" fill="#2488BE" transform="matrix(1.00, 0.00, -0.00, -1.00, 224.5, 481.0)">a</text><text xml:space="preserve" font-family="AvenirNext-Medium" font-size="28.0" fill="#2488BE" transform="matrix(1.00, 0.00, -0.00, -1.00, 239.4, 481.0)">t</text><text xml:space="preserve" font-family="AvenirNext-Medium" font-size="28.0" fill="#2488BE" transform="matrix(1.00, 0.00, -0.00, -1.00, 248.6, 481.0)">a</text><text xml:space="preserve" font-family="AvenirNext-Medium" font-size="28.0" fill="#838686" transform="matrix(1.00, 0.00, -0.00, -1.00, 263.8, 481.0)"> </text><text xml:space="preserve" font-family="AvenirNext-Medium" font-size="28.0" fill="#838686" transform="matrix(1.00, 0.00, -0.00, -1.00, 41.5, 414.7)">2</text><text xml:space="preserve" font-family="AvenirNext-Medium" font-size="28.0" fill="#838686" transform="matrix(1.00, 0.00, -0.00, -1.00, 58.2, 414.7)">.</text><text xml:space="preserve" font-family="AvenirNext-Medium" font-size="28.0" fill="#838686" transform="matrix(1.00, 0.00, -0.00, -1.00, 84.0, 415.0)">a</text><text xml:space="preserve" font-family="AvenirNext-Medium" font-size="28.0" fill="#838686" transform="matrix(1.00, 0.00, -0.00, -1.00, 99.2, 415.0)">s</text><text xml:space="preserve" font-family="AvenirNext-Medium" font-size="28.0" fill="#838686" transform="matrix(1.00, 0.00, -0.00, -1.00, 111.6, 415.0)">s</text><text xml:space="preserve" font-family="AvenirNext-Medium" font-size="28.0" fill="#838686" transform="matrix(1.00, 0.00, -0.00, -1.00, 124.0, 415.0)">i</text><text xml:space="preserve" font-family="AvenirNext-Medium" font-size="28.0" fill="#838686" transform="matrix(1.00, 0.00, -0.00, -1.00, 131.3, 415.0)">g</text><text xml:space="preserve" font-family="AvenirNext-Medium" font-size="28.0" fill="#838686" transform="matrix(1.00, 0.00, -0.00, -1.00, 149.0, 415.0)">n</text><text xml:space="preserve" font-family="AvenirNext-Medium" font-size="28.0" fill="#838686" transform="matrix(1.00, 0.00, -0.00, -1.00, 165.3, 415.0)">e</text><text xml:space="preserve" font-family="AvenirNext-Medium" font-size="28.0" fill="#838686" transform="matrix(1.00, 0.00, -0.00, -1.00, 181.3, 415.0)">d</text><text xml:space="preserve" font-family="AvenirNext-Medium" font-size="28.0" fill="#838686" transform="matrix(1.00, 0.00, -0.00, -1.00, 199.1, 415.0)"> </text><text xml:space="preserve" font-family="AvenirNext-Medium" font-size="28.0" fill="#838686" transform="matrix(1.00, 0.00, -0.00, -1.00, 206.1, 415.0)">t</text><text xml:space="preserve" font-family="AvenirNext-Medium" font-size="28.0" fill="#838686" transform="matrix(1.00, 0.00, -0.00, -1.00, 215.3, 415.0)">o</text><text xml:space="preserve" font-family="AvenirNext-Medium" font-size="28.0" fill="#838686" transform="matrix(1.00, 0.00, -0.00, -1.00, 232.4, 415.0)"> </text><text xml:space="preserve" font-family="AvenirNext-Medium" font-size="28.0" fill="#838686" transform="matrix(1.00, 0.00, -0.00, -1.00, 239.4, 415.0)">s</text><text xml:space="preserve" font-family="AvenirNext-Medium" font-size="28.0" fill="#838686" transform="matrix(1.00, 0.00, -0.00, -1.00, 251.8, 415.0)">i</text><text xml:space="preserve" font-family="AvenirNext-Medium" font-size="28.0" fill="#838686" transform="matrix(1.00, 0.00, -0.00, -1.00, 259.1, 415.0)">n</text><text xml:space="preserve" font-family="AvenirNext-Medium" font-size="28.0" fill="#838686" transform="matrix(1.00, 0.00, -0.00, -1.00, 275.4, 415.0)">g</text><text xml:space="preserve" font-family="AvenirNext-Medium" font-size="28.0" fill="#838686" transform="matrix(1.00, 0.00, -0.00, -1.00, 293.1, 415.0)">l</text><text xml:space="preserve" font-family="AvenirNext-Medium" font-size="28.0" fill="#838686" transform="matrix(1.00, 0.00, -0.00, -1.00, 300.4, 415.0)">e</text><text xml:space="preserve" font-family="AvenirNext-Medium" font-size="28.0" fill="#838686" transform="matrix(1.00, 0.00, -0.00, -1.00, 316.4, 415.0)"> </text><text xml:space="preserve" font-family="AvenirNext-Medium" font-size="28.0" fill="#838686" transform="matrix(1.00, 0.00, -0.00, -1.00, 323.4, 415.0)">e</text><text xml:space="preserve" font-family="AvenirNext-Medium" font-size="28.0" fill="#838686" transform="matrix(1.00, 0.00, -0.00, -1.00, 339.4, 415.0)">l</text><text xml:space="preserve" font-family="AvenirNext-Medium" font-size="28.0" fill="#838686" transform="matrix(1.00, 0.00, -0.00, -1.00, 346.7, 415.0)">e</text><text xml:space="preserve" font-family="AvenirNext-Medium" font-size="28.0" fill="#838686" transform="matrix(1.00, 0.00, -0.00, -1.00, 362.8, 415.0)">m</text><text xml:space="preserve" font-family="AvenirNext-Medium" font-size="28.0" fill="#838686" transform="matrix(1.00, 0.00, -0.00, -1.00, 387.6, 415.0)">e</text><text xml:space="preserve" font-family="AvenirNext-Medium" font-size="28.0" fill="#838686" transform="matrix(1.00, 0.00, -0.00, -1.00, 403.6, 415.0)">n</text><text xml:space="preserve" font-family="AvenirNext-Medium" font-size="28.0" fill="#838686" transform="matrix(1.00, 0.00, -0.00, -1.00, 419.9, 415.0)">t</text><text xml:space="preserve" font-family="AvenirNext-Medium" font-size="28.0" fill="#838686" transform="matrix(1.00, 0.00, -0.00, -1.00, 429.2, 415.0)">s</text><text xml:space="preserve" font-family="AvenirNext-Medium" font-size="28.0" fill="#838686" transform="matrix(1.00, 0.00, -0.00, -1.00, 441.6, 415.0)"> </text><text xml:space="preserve" font-family="AvenirNext-Medium" font-size="28.0" fill="#838686" transform="matrix(1.00, 0.00, -0.00, -1.00, 448.6, 415.0)">v</text><text xml:space="preserve" font-family="AvenirNext-Medium" font-size="28.0" fill="#838686" transform="matrix(1.00, 0.00, -0.00, -1.00, 462.7, 415.0)">i</text><text xml:space="preserve" font-family="AvenirNext-Medium" font-size="28.0" fill="#838686" transform="matrix(1.00, 0.00, -0.00, -1.00, 470.0, 415.0)">a</text><text xml:space="preserve" font-family="AvenirNext-Medium" font-size="28.0" fill="#838686" transform="matrix(1.00, 0.00, -0.00, -1.00, 485.1, 415.0)"> </text><text xml:space="preserve" font-family="AvenirNext-Medium" font-size="28.0" fill="#838686" transform="matrix(1.00, 0.00, -0.00, -1.00, 84.0, 377.0)">s</text><text xml:space="preserve" font-family="AvenirNext-Medium" font-size="28.0" fill="#838686" transform="matrix(1.00, 0.00, -0.00, -1.00, 96.4, 377.0)">e</text><text xml:space="preserve" font-family="AvenirNext-Medium" font-size="28.0" fill="#838686" transform="matrix(1.00, 0.00, -0.00, -1.00, 112.5, 377.0)">l</text><text xml:space="preserve" font-family="AvenirNext-Medium" font-size="28.0" fill="#838686" transform="matrix(1.00, 0.00, -0.00, -1.00, 119.8, 377.0)">e</text><text xml:space="preserve" font-family="AvenirNext-Medium" font-size="28.0" fill="#838686" transform="matrix(1.00, 0.00, -0.00, -1.00, 135.8, 377.0)">c</text><text xml:space="preserve" font-family="AvenirNext-Medium" font-size="28.0" fill="#838686" transform="matrix(1.00, 0.00, -0.00, -1.00, 149.6, 377.0)">t</text><text xml:space="preserve" font-family="AvenirNext-Medium" font-size="28.0" fill="#838686" transform="matrix(1.00, 0.00, -0.00, -1.00, 158.8, 377.0)">i</text><text xml:space="preserve" font-family="AvenirNext-Medium" font-size="28.0" fill="#838686" transform="matrix(1.00, 0.00, -0.00, -1.00, 166.1, 377.0)">o</text><text xml:space="preserve" font-family="AvenirNext-Medium" font-size="28.0" fill="#838686" transform="matrix(1.00, 0.00, -0.00, -1.00, 183.2, 377.0)">n</text><text xml:space="preserve" font-family="AvenirNext-Medium" font-size="28.0" fill="#838686" transform="matrix(1.00, 0.00, -0.00, -1.00, 199.5, 377.0)">.</text><text xml:space="preserve" font-family="AvenirNext-Medium" font-size="28.0" fill="#2488BE" transform="matrix(1.00, 0.00, -0.00, -1.00, 206.8, 377.0)">d</text><text xml:space="preserve" font-family="AvenirNext-Medium" font-size="28.0" fill="#2488BE" transform="matrix(1.00, 0.00, -0.00, -1.00, 224.5, 377.0)">a</text><text xml:space="preserve" font-family="AvenirNext-Medium" font-size="28.0" fill="#2488BE" transform="matrix(1.00, 0.00, -0.00, -1.00, 239.4, 377.0)">t</text><text xml:space="preserve" font-family="AvenirNext-Medium" font-size="28.0" fill="#2488BE" transform="matrix(1.00, 0.00, -0.00, -1.00, 248.6, 377.0)">u</text><text xml:space="preserve" font-family="AvenirNext-Medium" font-size="28.0" fill="#2488BE" transform="matrix(1.00, 0.00, -0.00, -1.00, 264.9, 377.0)">m</text><text xml:space="preserve" font-family="AvenirNext-Medium" font-size="28.0" fill="#838686" transform="matrix(1.00, 0.00, -0.00, -1.00, 289.8, 377.0)"> </text><text xml:space="preserve" font-family="AvenirNext-Medium" font-size="28.0" fill="#838686" transform="matrix(1.00, 0.00, -0.00, -1.00, 41.5, 310.7)">3</text><text xml:space="preserve" font-family="AvenirNext-Medium" font-size="28.0" fill="#838686" transform="matrix(1.00, 0.00, -0.00, -1.00, 58.2, 310.7)">.</text><text xml:space="preserve" font-family="AvenirNext-Medium" font-size="28.0" fill="#838686" transform="matrix(1.00, 0.00, -0.00, -1.00, 84.0, 311.0)">i</text><text xml:space="preserve" font-family="AvenirNext-Medium" font-size="28.0" fill="#838686" transform="matrix(1.00, 0.00, -0.00, -1.00, 91.3, 311.0)">n</text><text xml:space="preserve" font-family="AvenirNext-Medium" font-size="28.0" fill="#838686" transform="matrix(1.00, 0.00, -0.00, -1.00, 107.5, 311.0)">h</text><text xml:space="preserve" font-family="AvenirNext-Medium" font-size="28.0" fill="#838686" transform="matrix(1.00, 0.00, -0.00, -1.00, 123.9, 311.0)">e</text><text xml:space="preserve" font-family="AvenirNext-Medium" font-size="28.0" fill="#838686" transform="matrix(1.00, 0.00, -0.00, -1.00, 139.9, 311.0)">r</text><text xml:space="preserve" font-family="AvenirNext-Medium" font-size="28.0" fill="#838686" transform="matrix(1.00, 0.00, -0.00, -1.00, 150.1, 311.0)">i</text><text xml:space="preserve" font-family="AvenirNext-Medium" font-size="28.0" fill="#838686" transform="matrix(1.00, 0.00, -0.00, -1.00, 157.3, 311.0)">t</text><text xml:space="preserve" font-family="AvenirNext-Medium" font-size="28.0" fill="#838686" transform="matrix(1.00, 0.00, -0.00, -1.00, 166.5, 311.0)">e</text><text xml:space="preserve" font-family="AvenirNext-Medium" font-size="28.0" fill="#838686" transform="matrix(1.00, 0.00, -0.00, -1.00, 182.6, 311.0)">d</text><text xml:space="preserve" font-family="AvenirNext-Medium" font-size="28.0" fill="#838686" transform="matrix(1.00, 0.00, -0.00, -1.00, 200.4, 311.0)"> </text><text xml:space="preserve" font-family="AvenirNext-Medium" font-size="28.0" fill="#838686" transform="matrix(1.00, 0.00, -0.00, -1.00, 207.4, 311.0)">f</text><text xml:space="preserve" font-family="AvenirNext-Medium" font-size="28.0" fill="#838686" transform="matrix(1.00, 0.00, -0.00, -1.00, 216.0, 311.0)">r</text><text xml:space="preserve" font-family="AvenirNext-Medium" font-size="28.0" fill="#838686" transform="matrix(1.00, 0.00, -0.00, -1.00, 225.7, 311.0)">o</text><text xml:space="preserve" font-family="AvenirNext-Medium" font-size="28.0" fill="#838686" transform="matrix(1.00, 0.00, -0.00, -1.00, 242.8, 311.0)">m</text><text xml:space="preserve" font-family="AvenirNext-Medium" font-size="28.0" fill="#838686" transform="matrix(1.00, 0.00, -0.00, -1.00, 267.6, 311.0)"> </text><text xml:space="preserve" font-family="AvenirNext-Medium" font-size="28.0" fill="#838686" transform="matrix(1.00, 0.00, -0.00, -1.00, 274.6, 311.0)">p</text><text xml:space="preserve" font-family="AvenirNext-Medium" font-size="28.0" fill="#838686" transform="matrix(1.00, 0.00, -0.00, -1.00, 292.3, 311.0)">a</text><text xml:space="preserve" font-family="AvenirNext-Medium" font-size="28.0" fill="#838686" transform="matrix(1.00, 0.00, -0.00, -1.00, 307.5, 311.0)">r</text><text xml:space="preserve" font-family="AvenirNext-Medium" font-size="28.0" fill="#838686" transform="matrix(1.00, 0.00, -0.00, -1.00, 317.2, 311.0)">e</text><text xml:space="preserve" font-family="AvenirNext-Medium" font-size="28.0" fill="#838686" transform="matrix(1.00, 0.00, -0.00, -1.00, 333.2, 311.0)">n</text><text xml:space="preserve" font-family="AvenirNext-Medium" font-size="28.0" fill="#838686" transform="matrix(1.00, 0.00, -0.00, -1.00, 349.5, 311.0)">t</text><text xml:space="preserve" font-family="AvenirNext-Medium" font-size="28.0" fill="#838686" transform="matrix(1.00, 0.00, -0.00, -1.00, 358.7, 311.0)"> </text><text xml:space="preserve" font-family="AvenirNext-Medium" font-size="28.0" fill="#838686" transform="matrix(1.00, 0.00, -0.00, -1.00, 365.7, 311.0)">v</text><text xml:space="preserve" font-family="AvenirNext-Medium" font-size="28.0" fill="#838686" transform="matrix(1.00, 0.00, -0.00, -1.00, 379.8, 311.0)">i</text><text xml:space="preserve" font-family="AvenirNext-Medium" font-size="28.0" fill="#838686" transform="matrix(1.00, 0.00, -0.00, -1.00, 387.1, 311.0)">a</text><text xml:space="preserve" font-family="AvenirNext-Medium" font-size="28.0" fill="#838686" transform="matrix(1.00, 0.00, -0.00, -1.00, 402.2, 311.0)"> </text><text xml:space="preserve" font-family="AvenirNext-Medium" font-size="28.0" fill="#2488BE" transform="matrix(1.00, 0.00, -0.00, -1.00, 84.0, 273.0)">a</text><text xml:space="preserve" font-family="AvenirNext-Medium" font-size="28.0" fill="#2488BE" transform="matrix(1.00, 0.00, -0.00, -1.00, 99.2, 273.0)">p</text><text xml:space="preserve" font-family="AvenirNext-Medium" font-size="28.0" fill="#2488BE" transform="matrix(1.00, 0.00, -0.00, -1.00, 116.9, 273.0)">p</text><text xml:space="preserve" font-family="AvenirNext-Medium" font-size="28.0" fill="#2488BE" transform="matrix(1.00, 0.00, -0.00, -1.00, 134.7, 273.0)">e</text><text xml:space="preserve" font-family="AvenirNext-Medium" font-size="28.0" fill="#2488BE" transform="matrix(1.00, 0.00, -0.00, -1.00, 150.7, 273.0)">n</text><text xml:space="preserve" font-family="AvenirNext-Medium" font-size="28.0" fill="#2488BE" transform="matrix(1.00, 0.00, -0.00, -1.00, 167.0, 273.0)">d</text><text xml:space="preserve" font-family="AvenirNext-Medium" font-size="28.0" fill="#838686" transform="matrix(1.00, 0.00, -0.00, -1.00, 184.8, 273.0)">,</text><text xml:space="preserve" font-family="AvenirNext-Medium" font-size="28.0" fill="#838686" transform="matrix(1.00, 0.00, -0.00, -1.00, 191.2, 273.0)"> </text><text xml:space="preserve" font-family="AvenirNext-Medium" font-size="28.0" fill="#2488BE" transform="matrix(1.00, 0.00, -0.00, -1.00, 198.2, 273.0)">i</text><text xml:space="preserve" font-family="AvenirNext-Medium" font-size="28.0" fill="#2488BE" transform="matrix(1.00, 0.00, -0.00, -1.00, 205.5, 273.0)">n</text><text xml:space="preserve" font-family="AvenirNext-Medium" font-size="28.0" fill="#2488BE" transform="matrix(1.00, 0.00, -0.00, -1.00, 221.8, 273.0)">s</text><text xml:space="preserve" font-family="AvenirNext-Medium" font-size="28.0" fill="#2488BE" transform="matrix(1.00, 0.00, -0.00, -1.00, 234.2, 273.0)">e</text><text xml:space="preserve" font-family="AvenirNext-Medium" font-size="28.0" fill="#2488BE" transform="matrix(1.00, 0.00, -0.00, -1.00, 250.3, 273.0)">r</text><text xml:space="preserve" font-family="AvenirNext-Medium" font-size="28.0" fill="#2488BE" transform="matrix(1.00, 0.00, -0.00, -1.00, 260.1, 273.0)">t</text><text xml:space="preserve" font-family="AvenirNext-Medium" font-size="28.0" fill="#838686" transform="matrix(1.00, 0.00, -0.00, -1.00, 269.3, 273.0)">,</text><text xml:space="preserve" font-family="AvenirNext-Medium" font-size="28.0" fill="#838686" transform="matrix(1.00, 0.00, -0.00, -1.00, 275.7, 273.0)"> </text><text xml:space="preserve" font-family="AvenirNext-Medium" font-size="28.0" fill="#838686" transform="matrix(1.00, 0.00, -0.00, -1.00, 282.7, 273.0)">e</text><text xml:space="preserve" font-family="AvenirNext-Medium" font-size="28.0" fill="#838686" transform="matrix(1.00, 0.00, -0.00, -1.00, 298.8, 273.0)">t</text><text xml:space="preserve" font-family="AvenirNext-Medium" font-size="28.0" fill="#838686" transform="matrix(1.00, 0.00, -0.00, -1.00, 308.0, 273.0)">c</text><text xml:space="preserve" font-family="AvenirNext-Medium" font-size="28.0" fill="#838686" transform="matrix(1.00, 0.00, -0.00, -1.00, 321.8, 273.0)">.</text><text xml:space="preserve" font-family="AvenirNext-Medium" font-size="28.0" fill="#838686" transform="matrix(1.00, 0.00, -0.00, -1.00, 328.2, 273.0)"> </text><text xml:space="preserve" font-family="LucidaGrande" font-size="29.4" fill="#34A4DA" transform="matrix(1.00, 0.00, -0.00, -1.00, 41.5, 209.7)">‣</text><text xml:space="preserve" font-family="AvenirNext-Medium" font-size="28.0" fill="#838686" transform="matrix(1.00, 0.00, -0.00, -1.00, 70.0, 207.0)">d</text><text xml:space="preserve" font-family="AvenirNext-Medium" font-size="28.0" fill="#838686" transform="matrix(1.00, 0.00, -0.00, -1.00, 87.8, 207.0)">a</text><text xml:space="preserve" font-family="AvenirNext-Medium" font-size="28.0" fill="#838686" transform="matrix(1.00, 0.00, -0.00, -1.00, 102.7, 207.0)">t</text><text xml:space="preserve" font-family="AvenirNext-Medium" font-size="28.0" fill="#838686" transform="matrix(1.00, 0.00, -0.00, -1.00, 111.9, 207.0)">a</text><text xml:space="preserve" font-family="AvenirNext-Medium" font-size="28.0" fill="#838686" transform="matrix(1.00, 0.00, -0.00, -1.00, 127.1, 207.0)"> </text><text xml:space="preserve" font-family="AvenirNext-Medium" font-size="28.0" fill="#838686" transform="matrix(1.00, 0.00, -0.00, -1.00, 134.1, 207.0)">s</text><text xml:space="preserve" font-family="AvenirNext-Medium" font-size="28.0" fill="#838686" transform="matrix(1.00, 0.00, -0.00, -1.00, 146.5, 207.0)">t</text><text xml:space="preserve" font-family="AvenirNext-Medium" font-size="28.0" fill="#838686" transform="matrix(1.00, 0.00, -0.00, -1.00, 155.7, 207.0)">o</text><text xml:space="preserve" font-family="AvenirNext-Medium" font-size="28.0" fill="#838686" transform="matrix(1.00, 0.00, -0.00, -1.00, 172.8, 207.0)">r</text><text xml:space="preserve" font-family="AvenirNext-Medium" font-size="28.0" fill="#838686" transform="matrix(1.00, 0.00, -0.00, -1.00, 182.4, 207.0)">e</text><text xml:space="preserve" font-family="AvenirNext-Medium" font-size="28.0" fill="#838686" transform="matrix(1.00, 0.00, -0.00, -1.00, 198.5, 207.0)">d</text><text xml:space="preserve" font-family="AvenirNext-Medium" font-size="28.0" fill="#838686" transform="matrix(1.00, 0.00, -0.00, -1.00, 216.2, 207.0)"> </text><text xml:space="preserve" font-family="AvenirNext-Medium" font-size="28.0" fill="#838686" transform="matrix(1.00, 0.00, -0.00, -1.00, 223.2, 207.0)">i</text><text xml:space="preserve" font-family="AvenirNext-Medium" font-size="28.0" fill="#838686" transform="matrix(1.00, 0.00, -0.00, -1.00, 230.5, 207.0)">n</text><text xml:space="preserve" font-family="AvenirNext-Medium" font-size="28.0" fill="#838686" transform="matrix(1.00, 0.00, -0.00, -1.00, 246.8, 207.0)"> </text><text xml:space="preserve" font-family="AvenirNext-Medium" font-size="28.0" fill="#838686" transform="matrix(1.00, 0.00, -0.00, -1.00, 253.8, 207.0)">p</text><text xml:space="preserve" font-family="AvenirNext-Medium" font-size="28.0" fill="#838686" transform="matrix(1.00, 0.00, -0.00, -1.00, 271.5, 207.0)">r</text><text xml:space="preserve" font-family="AvenirNext-Medium" font-size="28.0" fill="#838686" transform="matrix(1.00, 0.00, -0.00, -1.00, 281.2, 207.0)">o</text><text xml:space="preserve" font-family="AvenirNext-Medium" font-size="28.0" fill="#838686" transform="matrix(1.00, 0.00, -0.00, -1.00, 298.3, 207.0)">p</text><text xml:space="preserve" font-family="AvenirNext-Medium" font-size="28.0" fill="#838686" transform="matrix(1.00, 0.00, -0.00, -1.00, 316.0, 207.0)">e</text><text xml:space="preserve" font-family="AvenirNext-Medium" font-size="28.0" fill="#838686" transform="matrix(1.00, 0.00, -0.00, -1.00, 332.1, 207.0)">r</text><text xml:space="preserve" font-family="AvenirNext-Medium" font-size="28.0" fill="#838686" transform="matrix(1.00, 0.00, -0.00, -1.00, 341.9, 207.0)">t</text><text xml:space="preserve" font-family="AvenirNext-Medium" font-size="28.0" fill="#838686" transform="matrix(1.00, 0.00, -0.00, -1.00, 351.1, 207.0)">y</text><text xml:space="preserve" font-family="AvenirNext-Medium" font-size="28.0" fill="#838686" transform="matrix(1.00, 0.00, -0.00, -1.00, 365.2, 207.0)"> </text><text xml:space="preserve" font-family="AvenirNext-Medium" font-size="28.0" fill="#2488BE" transform="matrix(1.00, 0.00, -0.00, -1.00, 372.2, 207.0)">_</text><text xml:space="preserve" font-family="AvenirNext-Medium" font-size="28.0" fill="#2488BE" transform="matrix(1.00, 0.00, -0.00, -1.00, 386.2, 207.0)">_</text><text xml:space="preserve" font-family="AvenirNext-Medium" font-size="28.0" fill="#2488BE" transform="matrix(1.00, 0.00, -0.00, -1.00, 400.2, 207.0)">d</text><text xml:space="preserve" font-family="AvenirNext-Medium" font-size="28.0" fill="#2488BE" transform="matrix(1.00, 0.00, -0.00, -1.00, 418.0, 207.0)">a</text><text xml:space="preserve" font-family="AvenirNext-Medium" font-size="28.0" fill="#2488BE" transform="matrix(1.00, 0.00, -0.00, -1.00, 432.9, 207.0)">t</text><text xml:space="preserve" font-family="AvenirNext-Medium" font-size="28.0" fill="#2488BE" transform="matrix(1.00, 0.00, -0.00, -1.00, 442.1, 207.0)">a</text><text xml:space="preserve" font-family="AvenirNext-Medium" font-size="28.0" fill="#2488BE" transform="matrix(1.00, 0.00, -0.00, -1.00, 457.2, 207.0)">_</text><text xml:space="preserve" font-family="AvenirNext-Medium" font-size="28.0" fill="#2488BE" transform="matrix(1.00, 0.00, -0.00, -1.00, 471.2, 207.0)">_</text><path d="M 512.4 325.0 L 988.9 325.0 L 988.9 295.0 L 512.4 295.0 Z M 512.4 325.0 " fill="#FEFFFE"></path><g><clipPath id="clip-1139"><path d="M 511.0 293.6 L 990.3 293.6 L 990.3 326.4 L 511.0 326.4 Z M 511.0 293.6 "></path></clipPath><g clip-path="url(#clip-1139)"><text xml:space="preserve" font-family="CourierNewPSMT" font-size="19.0" fill="#000000" transform="matrix(1.00, 0.00, -0.00, -1.00, 516.0, 305.0)">d</text><text xml:space="preserve" font-family="CourierNewPSMT" font-size="19.0" fill="#000000" transform="matrix(1.00, 0.00, -0.00, -1.00, 527.4, 305.0)">3</text><text xml:space="preserve" font-family="CourierNewPSMT" font-size="19.0" fill="#000000" transform="matrix(1.00, 0.00, -0.00, -1.00, 538.8, 305.0)">.</text><text xml:space="preserve" font-family="CourierNewPSMT" font-size="19.0" fill="#021993" transform="matrix(1.00, 0.00, -0.00, -1.00, 550.2, 305.0)">s</text><text xml:space="preserve" font-family="CourierNewPSMT" font-size="19.0" fill="#021993" transform="matrix(1.00, 0.00, -0.00, -1.00, 561.6, 305.0)">e</text><text xml:space="preserve" font-family="CourierNewPSMT" font-size="19.0" fill="#021993" transform="matrix(1.00, 0.00, -0.00, -1.00, 573.0, 305.0)">l</text><text xml:space="preserve" font-family="CourierNewPSMT" font-size="19.0" fill="#021993" transform="matrix(1.00, 0.00, -0.00, -1.00, 584.4, 305.0)">e</text><text xml:space="preserve" font-family="CourierNewPSMT" font-size="19.0" fill="#021993" transform="matrix(1.00, 0.00, -0.00, -1.00, 595.8, 305.0)">c</text><text xml:space="preserve" font-family="CourierNewPSMT" font-size="19.0" fill="#021993" transform="matrix(1.00, 0.00, -0.00, -1.00, 607.2, 305.0)">t</text><text xml:space="preserve" font-family="CourierNewPSMT" font-size="19.0" fill="#000000" transform="matrix(1.00, 0.00, -0.00, -1.00, 618.6, 305.0)">(</text><text xml:space="preserve" font-family="CourierNewPSMT" font-size="19.0" fill="#CC1C00" transform="matrix(1.00, 0.00, -0.00, -1.00, 630.0, 305.0)">"</text><text xml:space="preserve" font-family="CourierNewPSMT" font-size="19.0" fill="#CC1C00" transform="matrix(1.00, 0.00, -0.00, -1.00, 641.4, 305.0)">b</text><text xml:space="preserve" font-family="CourierNewPSMT" font-size="19.0" fill="#CC1C00" transform="matrix(1.00, 0.00, -0.00, -1.00, 652.8, 305.0)">o</text><text xml:space="preserve" font-family="CourierNewPSMT" font-size="19.0" fill="#CC1C00" transform="matrix(1.00, 0.00, -0.00, -1.00, 664.2, 305.0)">d</text><text xml:space="preserve" font-family="CourierNewPSMT" font-size="19.0" fill="#CC1C00" transform="matrix(1.00, 0.00, -0.00, -1.00, 675.6, 305.0)">y</text><text xml:space="preserve" font-family="CourierNewPSMT" font-size="19.0" fill="#CC1C00" transform="matrix(1.00, 0.00, -0.00, -1.00, 687.0, 305.0)">"</text><text xml:space="preserve" font-family="CourierNewPSMT" font-size="19.0" fill="#000000" transform="matrix(1.00, 0.00, -0.00, -1.00, 698.4, 305.0)">)</text><text xml:space="preserve" font-family="CourierNewPSMT" font-size="19.0" fill="#000000" transform="matrix(1.00, 0.00, -0.00, -1.00, 709.8, 305.0)">.</text><text xml:space="preserve" font-family="CourierNewPSMT" font-size="19.0" fill="#021993" transform="matrix(1.00, 0.00, -0.00, -1.00, 721.2, 305.0)">d</text><text xml:space="preserve" font-family="CourierNewPSMT" font-size="19.0" fill="#021993" transform="matrix(1.00, 0.00, -0.00, -1.00, 732.6, 305.0)">a</text><text xml:space="preserve" font-family="CourierNewPSMT" font-size="19.0" fill="#021993" transform="matrix(1.00, 0.00, -0.00, -1.00, 744.0, 305.0)">t</text><text xml:space="preserve" font-family="CourierNewPSMT" font-size="19.0" fill="#021993" transform="matrix(1.00, 0.00, -0.00, -1.00, 755.4, 305.0)">u</text><text xml:space="preserve" font-family="CourierNewPSMT" font-size="19.0" fill="#021993" transform="matrix(1.00, 0.00, -0.00, -1.00, 766.8, 305.0)">m</text><text xml:space="preserve" font-family="CourierNewPSMT" font-size="19.0" fill="#000000" transform="matrix(1.00, 0.00, -0.00, -1.00, 778.2, 305.0)">(</text><text xml:space="preserve" font-family="CourierNewPSMT" font-size="19.0" fill="#BE8F00" transform="matrix(1.00, 0.00, -0.00, -1.00, 789.6, 305.0)">4</text><text xml:space="preserve" font-family="CourierNewPSMT" font-size="19.0" fill="#BE8F00" transform="matrix(1.00, 0.00, -0.00, -1.00, 801.0, 305.0)">2</text><text xml:space="preserve" font-family="CourierNewPSMT" font-size="19.0" fill="#000000" transform="matrix(1.00, 0.00, -0.00, -1.00, 812.4, 305.0)">)</text><text xml:space="preserve" font-family="CourierNewPSMT" font-size="19.0" fill="#000000" transform="matrix(1.00, 0.00, -0.00, -1.00, 823.9, 305.0)">.</text><text xml:space="preserve" font-family="CourierNewPSMT" font-size="19.0" fill="#021993" transform="matrix(1.00, 0.00, -0.00, -1.00, 835.3, 305.0)">a</text><text xml:space="preserve" font-family="CourierNewPSMT" font-size="19.0" fill="#021993" transform="matrix(1.00, 0.00, -0.00, -1.00, 846.7, 305.0)">p</text><text xml:space="preserve" font-family="CourierNewPSMT" font-size="19.0" fill="#021993" transform="matrix(1.00, 0.00, -0.00, -1.00, 858.1, 305.0)">p</text><text xml:space="preserve" font-family="CourierNewPSMT" font-size="19.0" fill="#021993" transform="matrix(1.00, 0.00, -0.00, -1.00, 869.5, 305.0)">e</text><text xml:space="preserve" font-family="CourierNewPSMT" font-size="19.0" fill="#021993" transform="matrix(1.00, 0.00, -0.00, -1.00, 880.9, 305.0)">n</text><text xml:space="preserve" font-family="CourierNewPSMT" font-size="19.0" fill="#021993" transform="matrix(1.00, 0.00, -0.00, -1.00, 892.3, 305.0)">d</text><text xml:space="preserve" font-family="CourierNewPSMT" font-size="19.0" fill="#000000" transform="matrix(1.00, 0.00, -0.00, -1.00, 903.7, 305.0)">(</text><text xml:space="preserve" font-family="CourierNewPSMT" font-size="19.0" fill="#CC1C00" transform="matrix(1.00, 0.00, -0.00, -1.00, 915.1, 305.0)">"</text><text xml:space="preserve" font-family="CourierNewPSMT" font-size="19.0" fill="#CC1C00" transform="matrix(1.00, 0.00, -0.00, -1.00, 926.5, 305.0)">h</text><text xml:space="preserve" font-family="CourierNewPSMT" font-size="19.0" fill="#CC1C00" transform="matrix(1.00, 0.00, -0.00, -1.00, 937.9, 305.0)">1</text><text xml:space="preserve" font-family="CourierNewPSMT" font-size="19.0" fill="#CC1C00" transform="matrix(1.00, 0.00, -0.00, -1.00, 949.3, 305.0)">"</text><text xml:space="preserve" font-family="CourierNewPSMT" font-size="19.0" fill="#000000" transform="matrix(1.00, 0.00, -0.00, -1.00, 960.7, 305.0)">)</text><text xml:space="preserve" font-family="CourierNewPSMT" font-size="19.0" fill="#000000" transform="matrix(1.00, 0.00, -0.00, -1.00, 972.1, 305.0)">;</text></g></g><path d="M 586.5 431.0 L 914.8 431.0 L 914.8 401.0 L 586.5 401.0 Z M 586.5 431.0 " fill="#FEFFFE"></path><g><clipPath id="clip-1140"><path d="M 585.2 399.6 L 916.2 399.6 L 916.2 432.4 L 585.2 432.4 Z M 585.2 399.6 "></path></clipPath><g clip-path="url(#clip-1140)"><text xml:space="preserve" font-family="CourierNewPSMT" font-size="19.0" fill="#000000" transform="matrix(1.00, 0.00, -0.00, -1.00, 591.0, 411.0)">d</text><text xml:space="preserve" font-family="CourierNewPSMT" font-size="19.0" fill="#000000" transform="matrix(1.00, 0.00, -0.00, -1.00, 602.4, 411.0)">3</text><text xml:space="preserve" font-family="CourierNewPSMT" font-size="19.0" fill="#000000" transform="matrix(1.00, 0.00, -0.00, -1.00, 613.8, 411.0)">.</text><text xml:space="preserve" font-family="CourierNewPSMT" font-size="19.0" fill="#021993" transform="matrix(1.00, 0.00, -0.00, -1.00, 625.2, 411.0)">s</text><text xml:space="preserve" font-family="CourierNewPSMT" font-size="19.0" fill="#021993" transform="matrix(1.00, 0.00, -0.00, -1.00, 636.6, 411.0)">e</text><text xml:space="preserve" font-family="CourierNewPSMT" font-size="19.0" fill="#021993" transform="matrix(1.00, 0.00, -0.00, -1.00, 648.0, 411.0)">l</text><text xml:space="preserve" font-family="CourierNewPSMT" font-size="19.0" fill="#021993" transform="matrix(1.00, 0.00, -0.00, -1.00, 659.4, 411.0)">e</text><text xml:space="preserve" font-family="CourierNewPSMT" font-size="19.0" fill="#021993" transform="matrix(1.00, 0.00, -0.00, -1.00, 670.8, 411.0)">c</text><text xml:space="preserve" font-family="CourierNewPSMT" font-size="19.0" fill="#021993" transform="matrix(1.00, 0.00, -0.00, -1.00, 682.2, 411.0)">t</text><text xml:space="preserve" font-family="CourierNewPSMT" font-size="19.0" fill="#000000" transform="matrix(1.00, 0.00, -0.00, -1.00, 693.6, 411.0)">(</text><text xml:space="preserve" font-family="CourierNewPSMT" font-size="19.0" fill="#CC1C00" transform="matrix(1.00, 0.00, -0.00, -1.00, 705.0, 411.0)">„</text><text xml:space="preserve" font-family="CourierNewPSMT" font-size="19.0" fill="#CC1C00" transform="matrix(1.00, 0.00, -0.00, -1.00, 716.4, 411.0)">b</text><text xml:space="preserve" font-family="CourierNewPSMT" font-size="19.0" fill="#CC1C00" transform="matrix(1.00, 0.00, -0.00, -1.00, 727.8, 411.0)">o</text><text xml:space="preserve" font-family="CourierNewPSMT" font-size="19.0" fill="#CC1C00" transform="matrix(1.00, 0.00, -0.00, -1.00, 739.2, 411.0)">d</text><text xml:space="preserve" font-family="CourierNewPSMT" font-size="19.0" fill="#CC1C00" transform="matrix(1.00, 0.00, -0.00, -1.00, 750.6, 411.0)">y</text><text xml:space="preserve" font-family="CourierNewPSMT" font-size="19.0" fill="#CC1C00" transform="matrix(1.00, 0.00, -0.00, -1.00, 762.0, 411.0)">"</text><text xml:space="preserve" font-family="CourierNewPSMT" font-size="19.0" fill="#000000" transform="matrix(1.00, 0.00, -0.00, -1.00, 773.4, 411.0)">)</text><text xml:space="preserve" font-family="CourierNewPSMT" font-size="19.0" fill="#000000" transform="matrix(1.00, 0.00, -0.00, -1.00, 784.8, 411.0)">.</text><text xml:space="preserve" font-family="CourierNewPSMT" font-size="19.0" fill="#021993" transform="matrix(1.00, 0.00, -0.00, -1.00, 796.2, 411.0)">d</text><text xml:space="preserve" font-family="CourierNewPSMT" font-size="19.0" fill="#021993" transform="matrix(1.00, 0.00, -0.00, -1.00, 807.6, 411.0)">a</text><text xml:space="preserve" font-family="CourierNewPSMT" font-size="19.0" fill="#021993" transform="matrix(1.00, 0.00, -0.00, -1.00, 819.0, 411.0)">t</text><text xml:space="preserve" font-family="CourierNewPSMT" font-size="19.0" fill="#021993" transform="matrix(1.00, 0.00, -0.00, -1.00, 830.4, 411.0)">u</text><text xml:space="preserve" font-family="CourierNewPSMT" font-size="19.0" fill="#021993" transform="matrix(1.00, 0.00, -0.00, -1.00, 841.8, 411.0)">m</text><text xml:space="preserve" font-family="CourierNewPSMT" font-size="19.0" fill="#000000" transform="matrix(1.00, 0.00, -0.00, -1.00, 853.2, 411.0)">(</text><text xml:space="preserve" font-family="CourierNewPSMT" font-size="19.0" fill="#BE8F00" transform="matrix(1.00, 0.00, -0.00, -1.00, 864.6, 411.0)">4</text><text xml:space="preserve" font-family="CourierNewPSMT" font-size="19.0" fill="#BE8F00" transform="matrix(1.00, 0.00, -0.00, -1.00, 876.0, 411.0)">2</text><text xml:space="preserve" font-family="CourierNewPSMT" font-size="19.0" fill="#000000" transform="matrix(1.00, 0.00, -0.00, -1.00, 887.4, 411.0)">)</text><text xml:space="preserve" font-family="CourierNewPSMT" font-size="19.0" fill="#000000" transform="matrix(1.00, 0.00, -0.00, -1.00, 898.9, 411.0)">;</text></g></g></g></svg>