<?xml version="1.0" encoding="UTF-8" standalone="no"?><svg xmlns="http://www.w3.org/2000/svg" xmlns:xlink="http://www.w3.org/1999/xlink" clip-rule="evenodd" stroke-miterlimit="4.00" viewBox="0 0 1024 768"><desc>SVG generated by Keynote</desc><defs></defs><g transform="matrix(1.00, 0.00, -0.00, -1.00, 0.0, 768.0)"><path d="M 0.0 768.0 L 1024.0 768.0 L 1024.0 0.0 L 0.0 0.0 Z M 0.0 768.0 " fill="#212121"></path><path d="M 0.0 0.0 L 960.0 0.0 " fill="none" stroke="#A6AAA9" stroke-width="2.00" transform="matrix(1.00, 0.00, 0.00, -1.00, 32.0, 689.8)"></path><text xml:space="preserve" font-family="DINAlternate-Bold" font-weight="bold" font-size="24.0" fill="#838686" transform="matrix(1.00, 0.00, -0.00, -1.00, 36.0, 705.0)">N</text><text xml:space="preserve" font-family="DINAlternate-Bold" font-weight="bold" font-size="24.0" fill="#838686" transform="matrix(1.00, 0.00, -0.00, -1.00, 53.6, 705.0)">U</text><text xml:space="preserve" font-family="DINAlternate-Bold" font-weight="bold" font-size="24.0" fill="#838686" transform="matrix(1.00, 0.00, -0.00, -1.00, 69.9, 705.0)">T</text><text xml:space="preserve" font-family="DINAlternate-Bold" font-weight="bold" font-size="24.0" fill="#838686" transform="matrix(1.00, 0.00, -0.00, -1.00, 83.1, 705.0)">S</text><text xml:space="preserve" font-family="DINAlternate-Bold" font-weight="bold" font-size="24.0" fill="#838686" transform="matrix(1.00, 0.00, -0.00, -1.00, 98.1, 705.0)">H</text><text xml:space="preserve" font-family="DINAlternate-Bold" font-weight="bold" font-size="24.0" fill="#838686" transform="matrix(1.00, 0.00, -0.00, -1.00, 114.9, 705.0)">E</text><text xml:space="preserve" font-family="DINAlternate-Bold" font-weight="bold" font-size="24.0" fill="#838686" transform="matrix(1.00, 0.00, -0.00, -1.00, 129.4, 705.0)">L</text><text xml:space="preserve" font-family="DINAlternate-Bold" font-weight="bold" font-size="24.0" fill="#838686" transform="matrix(1.00, 0.00, -0.00, -1.00, 144.0, 705.0)">L</text><text xml:space="preserve" font-family="DINAlternate-Bold" font-weight="bold" font-size="24.0" fill="#838686" transform="matrix(1.00, 0.00, -0.00, -1.00, 158.5, 705.0)"> </text><text xml:space="preserve" font-family="DINAlternate-Bold" font-weight="bold" font-size="24.0" fill="#838686" transform="matrix(1.00, 0.00, -0.00, -1.00, 165.5, 705.0)">D</text><text xml:space="preserve" font-family="DINAlternate-Bold" font-weight="bold" font-size="24.0" fill="#838686" transform="matrix(1.00, 0.00, -0.00, -1.00, 181.8, 705.0)">3</text><text xml:space="preserve" font-family="DINCondensed-Bold" font-weight="bold" font-size="48.0" fill="#34A4DA" transform="matrix(1.00, 0.00, -0.00, -1.00, 36.0, 608.0)">K</text><text xml:space="preserve" font-family="DINCondensed-Bold" font-weight="bold" font-size="48.0" fill="#34A4DA" transform="matrix(1.00, 0.00, -0.00, -1.00, 56.4, 608.0)">E</text><text xml:space="preserve" font-family="DINCondensed-Bold" font-weight="bold" font-size="48.0" fill="#34A4DA" transform="matrix(1.00, 0.00, -0.00, -1.00, 74.2, 608.0)">Y</text><text xml:space="preserve" font-family="DINCondensed-Bold" font-weight="bold" font-size="48.0" fill="#34A4DA" transform="matrix(1.00, 0.00, -0.00, -1.00, 92.8, 608.0)">N</text><text xml:space="preserve" font-family="DINCondensed-Bold" font-weight="bold" font-size="48.0" fill="#34A4DA" transform="matrix(1.00, 0.00, -0.00, -1.00, 114.1, 608.0)">O</text><text xml:space="preserve" font-family="DINCondensed-Bold" font-weight="bold" font-size="48.0" fill="#34A4DA" transform="matrix(1.00, 0.00, -0.00, -1.00, 134.0, 608.0)">T</text><text xml:space="preserve" font-family="DINCondensed-Bold" font-weight="bold" font-size="48.0" fill="#34A4DA" transform="matrix(1.00, 0.00, -0.00, -1.00, 150.0, 608.0)">E</text><text xml:space="preserve" font-family="DINCondensed-Bold" font-weight="bold" font-size="48.0" fill="#34A4DA" transform="matrix(1.00, 0.00, -0.00, -1.00, 167.7, 608.0)">S</text><text xml:space="preserve" font-family="DINCondensed-Bold" font-weight="bold" font-size="48.0" fill="#34A4DA" transform="matrix(1.00, 0.00, -0.00, -1.00, 187.2, 608.0)"> </text><text xml:space="preserve" font-family="DINCondensed-Bold" font-weight="bold" font-size="48.0" fill="#34A4DA" transform="matrix(1.00, 0.00, -0.00, -1.00, 196.1, 608.0)">D</text><text xml:space="preserve" font-family="DINCondensed-Bold" font-weight="bold" font-size="48.0" fill="#34A4DA" transform="matrix(1.00, 0.00, -0.00, -1.00, 216.6, 608.0)">3</text><text xml:space="preserve" font-family="DINCondensed-Bold" font-weight="bold" font-size="48.0" fill="#34A4DA" transform="matrix(1.00, 0.00, -0.00, -1.00, 234.4, 608.0)"> </text><text xml:space="preserve" font-family="LucidaGrande" font-size="33.9" fill="#34A4DA" transform="matrix(1.00, 0.00, -0.00, -1.00, 36.0, 513.2)">▸</text><text xml:space="preserve" font-family="AvenirNext-Medium" font-size="32.3" fill="#838686" transform="matrix(1.00, 0.00, -0.00, -1.00, 69.0, 516.0)">s</text><text xml:space="preserve" font-family="AvenirNext-Medium" font-size="32.3" fill="#838686" transform="matrix(1.00, 0.00, -0.00, -1.00, 83.3, 516.0)">e</text><text xml:space="preserve" font-family="AvenirNext-Medium" font-size="32.3" fill="#838686" transform="matrix(1.00, 0.00, -0.00, -1.00, 101.8, 516.0)">l</text><text xml:space="preserve" font-family="AvenirNext-Medium" font-size="32.3" fill="#838686" transform="matrix(1.00, 0.00, -0.00, -1.00, 110.2, 516.0)">e</text><text xml:space="preserve" font-family="AvenirNext-Medium" font-size="32.3" fill="#838686" transform="matrix(1.00, 0.00, -0.00, -1.00, 128.8, 516.0)">c</text><text xml:space="preserve" font-family="AvenirNext-Medium" font-size="32.3" fill="#838686" transform="matrix(1.00, 0.00, -0.00, -1.00, 144.7, 516.0)">t</text><text xml:space="preserve" font-family="AvenirNext-Medium" font-size="32.3" fill="#838686" transform="matrix(1.00, 0.00, -0.00, -1.00, 155.3, 516.0)">i</text><text xml:space="preserve" font-family="AvenirNext-Medium" font-size="32.3" fill="#838686" transform="matrix(1.00, 0.00, -0.00, -1.00, 163.7, 516.0)">o</text><text xml:space="preserve" font-family="AvenirNext-Medium" font-size="32.3" fill="#838686" transform="matrix(1.00, 0.00, -0.00, -1.00, 183.4, 516.0)">n</text><text xml:space="preserve" font-family="AvenirNext-Medium" font-size="32.3" fill="#838686" transform="matrix(1.00, 0.00, -0.00, -1.00, 202.2, 516.0)">s</text><text xml:space="preserve" font-family="AvenirNext-Medium" font-size="32.3" fill="#838686" transform="matrix(1.00, 0.00, -0.00, -1.00, 216.5, 516.0)"> </text><text xml:space="preserve" font-family="LucidaGrande" font-size="33.9" fill="#34A4DA" transform="matrix(1.00, 0.00, -0.00, -1.00, 36.0, 442.6)">▸</text><text xml:space="preserve" font-family="AvenirNext-Medium" font-size="32.3" fill="#838686" transform="matrix(1.00, 0.00, -0.00, -1.00, 69.0, 445.0)">d</text><text xml:space="preserve" font-family="AvenirNext-Medium" font-size="32.3" fill="#838686" transform="matrix(1.00, 0.00, -0.00, -1.00, 89.5, 445.0)">a</text><text xml:space="preserve" font-family="AvenirNext-Medium" font-size="32.3" fill="#838686" transform="matrix(1.00, 0.00, -0.00, -1.00, 106.7, 445.0)">t</text><text xml:space="preserve" font-family="AvenirNext-Medium" font-size="32.3" fill="#838686" transform="matrix(1.00, 0.00, -0.00, -1.00, 117.3, 445.0)">a</text><text xml:space="preserve" font-family="AvenirNext-Medium" font-size="32.3" fill="#838686" transform="matrix(1.00, 0.00, -0.00, -1.00, 134.8, 445.0)"> </text><text xml:space="preserve" font-family="AvenirNext-Medium" font-size="32.3" fill="#838686" transform="matrix(1.00, 0.00, -0.00, -1.00, 142.9, 445.0)">j</text><text xml:space="preserve" font-family="AvenirNext-Medium" font-size="32.3" fill="#838686" transform="matrix(1.00, 0.00, -0.00, -1.00, 151.3, 445.0)">o</text><text xml:space="preserve" font-family="AvenirNext-Medium" font-size="32.3" fill="#838686" transform="matrix(1.00, 0.00, -0.00, -1.00, 171.0, 445.0)">i</text><text xml:space="preserve" font-family="AvenirNext-Medium" font-size="32.3" fill="#838686" transform="matrix(1.00, 0.00, -0.00, -1.00, 179.4, 445.0)">n</text><text xml:space="preserve" font-family="AvenirNext-Medium" font-size="32.3" fill="#838686" transform="matrix(1.00, 0.00, -0.00, -1.00, 198.2, 445.0)">s</text><text xml:space="preserve" font-family="AvenirNext-Medium" font-size="32.3" fill="#838686" transform="matrix(1.00, 0.00, -0.00, -1.00, 212.5, 445.0)"> </text><text xml:space="preserve" font-family="AvenirNext-Medium" font-size="32.3" fill="#838686" transform="matrix(1.00, 0.00, -0.00, -1.00, 220.6, 445.0)">a</text><text xml:space="preserve" font-family="AvenirNext-Medium" font-size="32.3" fill="#838686" transform="matrix(1.00, 0.00, -0.00, -1.00, 238.1, 445.0)">n</text><text xml:space="preserve" font-family="AvenirNext-Medium" font-size="32.3" fill="#838686" transform="matrix(1.00, 0.00, -0.00, -1.00, 256.9, 445.0)">d</text><text xml:space="preserve" font-family="AvenirNext-Medium" font-size="32.3" fill="#838686" transform="matrix(1.00, 0.00, -0.00, -1.00, 277.4, 445.0)"> </text><text xml:space="preserve" font-family="AvenirNext-Medium" font-size="32.3" fill="#838686" transform="matrix(1.00, 0.00, -0.00, -1.00, 285.5, 445.0)">k</text><text xml:space="preserve" font-family="AvenirNext-Medium" font-size="32.3" fill="#838686" transform="matrix(1.00, 0.00, -0.00, -1.00, 301.9, 445.0)">e</text><text xml:space="preserve" font-family="AvenirNext-Medium" font-size="32.3" fill="#838686" transform="matrix(1.00, 0.00, -0.00, -1.00, 320.4, 445.0)">y</text><text xml:space="preserve" font-family="AvenirNext-Medium" font-size="32.3" fill="#838686" transform="matrix(1.00, 0.00, -0.00, -1.00, 336.7, 445.0)"> </text><text xml:space="preserve" font-family="AvenirNext-Medium" font-size="32.3" fill="#838686" transform="matrix(1.00, 0.00, -0.00, -1.00, 344.8, 445.0)">f</text><text xml:space="preserve" font-family="AvenirNext-Medium" font-size="32.3" fill="#838686" transform="matrix(1.00, 0.00, -0.00, -1.00, 354.8, 445.0)">u</text><text xml:space="preserve" font-family="AvenirNext-Medium" font-size="32.3" fill="#838686" transform="matrix(1.00, 0.00, -0.00, -1.00, 373.6, 445.0)">n</text><text xml:space="preserve" font-family="AvenirNext-Medium" font-size="32.3" fill="#838686" transform="matrix(1.00, 0.00, -0.00, -1.00, 392.4, 445.0)">c</text><text xml:space="preserve" font-family="AvenirNext-Medium" font-size="32.3" fill="#838686" transform="matrix(1.00, 0.00, -0.00, -1.00, 408.3, 445.0)">t</text><text xml:space="preserve" font-family="AvenirNext-Medium" font-size="32.3" fill="#838686" transform="matrix(1.00, 0.00, -0.00, -1.00, 419.0, 445.0)">i</text><text xml:space="preserve" font-family="AvenirNext-Medium" font-size="32.3" fill="#838686" transform="matrix(1.00, 0.00, -0.00, -1.00, 427.3, 445.0)">o</text><text xml:space="preserve" font-family="AvenirNext-Medium" font-size="32.3" fill="#838686" transform="matrix(1.00, 0.00, -0.00, -1.00, 447.0, 445.0)">n</text><text xml:space="preserve" font-family="AvenirNext-Medium" font-size="32.3" fill="#838686" transform="matrix(1.00, 0.00, -0.00, -1.00, 465.8, 445.0)">s</text><text xml:space="preserve" font-family="AvenirNext-Medium" font-size="32.3" fill="#838686" transform="matrix(1.00, 0.00, -0.00, -1.00, 480.2, 445.0)"> </text><text xml:space="preserve" font-family="LucidaGrande" font-size="33.9" fill="#34A4DA" transform="matrix(1.00, 0.00, -0.00, -1.00, 36.0, 372.0)">▸</text><text xml:space="preserve" font-family="AvenirNext-Medium" font-size="32.3" fill="#838686" transform="matrix(1.00, 0.00, -0.00, -1.00, 69.0, 375.0)">u</text><text xml:space="preserve" font-family="AvenirNext-Medium" font-size="32.3" fill="#838686" transform="matrix(1.00, 0.00, -0.00, -1.00, 87.8, 375.0)">p</text><text xml:space="preserve" font-family="AvenirNext-Medium" font-size="32.3" fill="#838686" transform="matrix(1.00, 0.00, -0.00, -1.00, 108.3, 375.0)">d</text><text xml:space="preserve" font-family="AvenirNext-Medium" font-size="32.3" fill="#838686" transform="matrix(1.00, 0.00, -0.00, -1.00, 128.8, 375.0)">a</text><text xml:space="preserve" font-family="AvenirNext-Medium" font-size="32.3" fill="#838686" transform="matrix(1.00, 0.00, -0.00, -1.00, 146.0, 375.0)">t</text><text xml:space="preserve" font-family="AvenirNext-Medium" font-size="32.3" fill="#838686" transform="matrix(1.00, 0.00, -0.00, -1.00, 156.6, 375.0)">e</text><text xml:space="preserve" font-family="AvenirNext-Medium" font-size="32.3" fill="#838686" transform="matrix(1.00, 0.00, -0.00, -1.00, 175.1, 375.0)">,</text><text xml:space="preserve" font-family="AvenirNext-Medium" font-size="32.3" fill="#838686" transform="matrix(1.00, 0.00, -0.00, -1.00, 182.5, 375.0)"> </text><text xml:space="preserve" font-family="AvenirNext-Medium" font-size="32.3" fill="#838686" transform="matrix(1.00, 0.00, -0.00, -1.00, 190.6, 375.0)">e</text><text xml:space="preserve" font-family="AvenirNext-Medium" font-size="32.3" fill="#838686" transform="matrix(1.00, 0.00, -0.00, -1.00, 209.1, 375.0)">n</text><text xml:space="preserve" font-family="AvenirNext-Medium" font-size="32.3" fill="#838686" transform="matrix(1.00, 0.00, -0.00, -1.00, 227.9, 375.0)">t</text><text xml:space="preserve" font-family="AvenirNext-Medium" font-size="32.3" fill="#838686" transform="matrix(1.00, 0.00, -0.00, -1.00, 238.5, 375.0)">e</text><text xml:space="preserve" font-family="AvenirNext-Medium" font-size="32.3" fill="#838686" transform="matrix(1.00, 0.00, -0.00, -1.00, 257.1, 375.0)">r</text><text xml:space="preserve" font-family="AvenirNext-Medium" font-size="32.3" fill="#838686" transform="matrix(1.00, 0.00, -0.00, -1.00, 267.2, 375.0)">,</text><text xml:space="preserve" font-family="AvenirNext-Medium" font-size="32.3" fill="#838686" transform="matrix(1.00, 0.00, -0.00, -1.00, 274.6, 375.0)"> </text><text xml:space="preserve" font-family="AvenirNext-Medium" font-size="32.3" fill="#838686" transform="matrix(1.00, 0.00, -0.00, -1.00, 282.7, 375.0)">e</text><text xml:space="preserve" font-family="AvenirNext-Medium" font-size="32.3" fill="#838686" transform="matrix(1.00, 0.00, -0.00, -1.00, 300.9, 375.0)">x</text><text xml:space="preserve" font-family="AvenirNext-Medium" font-size="32.3" fill="#838686" transform="matrix(1.00, 0.00, -0.00, -1.00, 317.4, 375.0)">i</text><text xml:space="preserve" font-family="AvenirNext-Medium" font-size="32.3" fill="#838686" transform="matrix(1.00, 0.00, -0.00, -1.00, 325.8, 375.0)">t</text><text xml:space="preserve" font-family="AvenirNext-Medium" font-size="32.3" fill="#838686" transform="matrix(1.00, 0.00, -0.00, -1.00, 336.4, 375.0)"> </text><text xml:space="preserve" font-family="LucidaGrande" font-size="33.9" fill="#34A4DA" transform="matrix(1.00, 0.00, -0.00, -1.00, 36.0, 301.4)">▸</text><text xml:space="preserve" font-family="AvenirNext-Medium" font-size="32.3" fill="#838686" transform="matrix(1.00, 0.00, -0.00, -1.00, 69.0, 304.0)">m</text><text xml:space="preserve" font-family="AvenirNext-Medium" font-size="32.3" fill="#838686" transform="matrix(1.00, 0.00, -0.00, -1.00, 97.7, 304.0)">e</text><text xml:space="preserve" font-family="AvenirNext-Medium" font-size="32.3" fill="#838686" transform="matrix(1.00, 0.00, -0.00, -1.00, 116.2, 304.0)">t</text><text xml:space="preserve" font-family="AvenirNext-Medium" font-size="32.3" fill="#838686" transform="matrix(1.00, 0.00, -0.00, -1.00, 126.8, 304.0)">h</text><text xml:space="preserve" font-family="AvenirNext-Medium" font-size="32.3" fill="#838686" transform="matrix(1.00, 0.00, -0.00, -1.00, 145.6, 304.0)">o</text><text xml:space="preserve" font-family="AvenirNext-Medium" font-size="32.3" fill="#838686" transform="matrix(1.00, 0.00, -0.00, -1.00, 165.4, 304.0)">d</text><text xml:space="preserve" font-family="AvenirNext-Medium" font-size="32.3" fill="#838686" transform="matrix(1.00, 0.00, -0.00, -1.00, 185.9, 304.0)"> </text><text xml:space="preserve" font-family="AvenirNext-Medium" font-size="32.3" fill="#838686" transform="matrix(1.00, 0.00, -0.00, -1.00, 193.9, 304.0)">c</text><text xml:space="preserve" font-family="AvenirNext-Medium" font-size="32.3" fill="#838686" transform="matrix(1.00, 0.00, -0.00, -1.00, 209.9, 304.0)">h</text><text xml:space="preserve" font-family="AvenirNext-Medium" font-size="32.3" fill="#838686" transform="matrix(1.00, 0.00, -0.00, -1.00, 228.8, 304.0)">a</text><text xml:space="preserve" font-family="AvenirNext-Medium" font-size="32.3" fill="#838686" transform="matrix(1.00, 0.00, -0.00, -1.00, 246.3, 304.0)">i</text><text xml:space="preserve" font-family="AvenirNext-Medium" font-size="32.3" fill="#838686" transform="matrix(1.00, 0.00, -0.00, -1.00, 254.6, 304.0)">n</text><text xml:space="preserve" font-family="AvenirNext-Medium" font-size="32.3" fill="#838686" transform="matrix(1.00, 0.00, -0.00, -1.00, 273.4, 304.0)">i</text><text xml:space="preserve" font-family="AvenirNext-Medium" font-size="32.3" fill="#838686" transform="matrix(1.00, 0.00, -0.00, -1.00, 281.8, 304.0)">n</text><text xml:space="preserve" font-family="AvenirNext-Medium" font-size="32.3" fill="#838686" transform="matrix(1.00, 0.00, -0.00, -1.00, 300.6, 304.0)">g</text><text xml:space="preserve" font-family="AvenirNext-Medium" font-size="32.3" fill="#838686" transform="matrix(1.00, 0.00, -0.00, -1.00, 321.0, 304.0)"> </text><text xml:space="preserve" font-family="LucidaGrande" font-size="33.9" fill="#34A4DA" transform="matrix(1.00, 0.00, -0.00, -1.00, 36.0, 230.8)">▸</text><text xml:space="preserve" font-family="AvenirNext-Medium" font-size="32.3" fill="#838686" transform="matrix(1.00, 0.00, -0.00, -1.00, 69.0, 233.0)">e</text><text xml:space="preserve" font-family="AvenirNext-Medium" font-size="32.3" fill="#838686" transform="matrix(1.00, 0.00, -0.00, -1.00, 87.5, 233.0)">v</text><text xml:space="preserve" font-family="AvenirNext-Medium" font-size="32.3" fill="#838686" transform="matrix(1.00, 0.00, -0.00, -1.00, 103.8, 233.0)">e</text><text xml:space="preserve" font-family="AvenirNext-Medium" font-size="32.3" fill="#838686" transform="matrix(1.00, 0.00, -0.00, -1.00, 122.3, 233.0)">n</text><text xml:space="preserve" font-family="AvenirNext-Medium" font-size="32.3" fill="#838686" transform="matrix(1.00, 0.00, -0.00, -1.00, 141.1, 233.0)">t</text><text xml:space="preserve" font-family="AvenirNext-Medium" font-size="32.3" fill="#838686" transform="matrix(1.00, 0.00, -0.00, -1.00, 151.7, 233.0)"> </text><text xml:space="preserve" font-family="AvenirNext-Medium" font-size="32.3" fill="#838686" transform="matrix(1.00, 0.00, -0.00, -1.00, 159.8, 233.0)">h</text><text xml:space="preserve" font-family="AvenirNext-Medium" font-size="32.3" fill="#838686" transform="matrix(1.00, 0.00, -0.00, -1.00, 178.7, 233.0)">a</text><text xml:space="preserve" font-family="AvenirNext-Medium" font-size="32.3" fill="#838686" transform="matrix(1.00, 0.00, -0.00, -1.00, 196.2, 233.0)">n</text><text xml:space="preserve" font-family="AvenirNext-Medium" font-size="32.3" fill="#838686" transform="matrix(1.00, 0.00, -0.00, -1.00, 215.0, 233.0)">d</text><text xml:space="preserve" font-family="AvenirNext-Medium" font-size="32.3" fill="#838686" transform="matrix(1.00, 0.00, -0.00, -1.00, 235.5, 233.0)">l</text><text xml:space="preserve" font-family="AvenirNext-Medium" font-size="32.3" fill="#838686" transform="matrix(1.00, 0.00, -0.00, -1.00, 243.9, 233.0)">e</text><text xml:space="preserve" font-family="AvenirNext-Medium" font-size="32.3" fill="#838686" transform="matrix(1.00, 0.00, -0.00, -1.00, 262.4, 233.0)">r</text><text xml:space="preserve" font-family="AvenirNext-Medium" font-size="32.3" fill="#838686" transform="matrix(1.00, 0.00, -0.00, -1.00, 274.1, 233.0)">s</text><text xml:space="preserve" font-family="AvenirNext-Medium" font-size="32.3" fill="#838686" transform="matrix(1.00, 0.00, -0.00, -1.00, 288.4, 233.0)"> </text><text xml:space="preserve" font-family="AvenirNext-Medium" font-size="32.3" fill="#838686" transform="matrix(1.00, 0.00, -0.00, -1.00, 296.5, 233.0)">a</text><text xml:space="preserve" font-family="AvenirNext-Medium" font-size="32.3" fill="#838686" transform="matrix(1.00, 0.00, -0.00, -1.00, 314.0, 233.0)">n</text><text xml:space="preserve" font-family="AvenirNext-Medium" font-size="32.3" fill="#838686" transform="matrix(1.00, 0.00, -0.00, -1.00, 332.8, 233.0)">d</text><text xml:space="preserve" font-family="AvenirNext-Medium" font-size="32.3" fill="#838686" transform="matrix(1.00, 0.00, -0.00, -1.00, 353.3, 233.0)"> </text><text xml:space="preserve" font-family="AvenirNext-Medium" font-size="32.3" fill="#838686" transform="matrix(1.00, 0.00, -0.00, -1.00, 361.4, 233.0)">l</text><text xml:space="preserve" font-family="AvenirNext-Medium" font-size="32.3" fill="#838686" transform="matrix(1.00, 0.00, -0.00, -1.00, 369.8, 233.0)">i</text><text xml:space="preserve" font-family="AvenirNext-Medium" font-size="32.3" fill="#838686" transform="matrix(1.00, 0.00, -0.00, -1.00, 378.1, 233.0)">s</text><text xml:space="preserve" font-family="AvenirNext-Medium" font-size="32.3" fill="#838686" transform="matrix(1.00, 0.00, -0.00, -1.00, 392.5, 233.0)">t</text><text xml:space="preserve" font-family="AvenirNext-Medium" font-size="32.3" fill="#838686" transform="matrix(1.00, 0.00, -0.00, -1.00, 403.1, 233.0)">e</text><text xml:space="preserve" font-family="AvenirNext-Medium" font-size="32.3" fill="#838686" transform="matrix(1.00, 0.00, -0.00, -1.00, 421.6, 233.0)">n</text><text xml:space="preserve" font-family="AvenirNext-Medium" font-size="32.3" fill="#838686" transform="matrix(1.00, 0.00, -0.00, -1.00, 440.4, 233.0)">e</text><text xml:space="preserve" font-family="AvenirNext-Medium" font-size="32.3" fill="#838686" transform="matrix(1.00, 0.00, -0.00, -1.00, 458.9, 233.0)">r</text><text xml:space="preserve" font-family="AvenirNext-Medium" font-size="32.3" fill="#838686" transform="matrix(1.00, 0.00, -0.00, -1.00, 470.6, 233.0)">s</text><text xml:space="preserve" font-family="AvenirNext-Medium" font-size="32.3" fill="#838686" transform="matrix(1.00, 0.00, -0.00, -1.00, 485.0, 233.0)"> </text><text xml:space="preserve" font-family="LucidaGrande" font-size="33.9" fill="#34A4DA" transform="matrix(1.00, 0.00, -0.00, -1.00, 36.0, 160.2)">▸</text><text xml:space="preserve" font-family="AvenirNext-Medium" font-size="32.3" fill="#838686" transform="matrix(1.00, 0.00, -0.00, -1.00, 69.0, 163.0)">ﬁ</text><text xml:space="preserve" font-family="AvenirNext-Medium" font-size="32.3" fill="#838686" transform="matrix(1.00, 0.00, -0.00, -1.00, 87.5, 163.0)">l</text><text xml:space="preserve" font-family="AvenirNext-Medium" font-size="32.3" fill="#838686" transform="matrix(1.00, 0.00, -0.00, -1.00, 95.9, 163.0)">t</text><text xml:space="preserve" font-family="AvenirNext-Medium" font-size="32.3" fill="#838686" transform="matrix(1.00, 0.00, -0.00, -1.00, 106.6, 163.0)">e</text><text xml:space="preserve" font-family="AvenirNext-Medium" font-size="32.3" fill="#838686" transform="matrix(1.00, 0.00, -0.00, -1.00, 125.1, 163.0)">r</text><text xml:space="preserve" font-family="AvenirNext-Medium" font-size="32.3" fill="#838686" transform="matrix(1.00, 0.00, -0.00, -1.00, 135.2, 163.0)">,</text><text xml:space="preserve" font-family="AvenirNext-Medium" font-size="32.3" fill="#838686" transform="matrix(1.00, 0.00, -0.00, -1.00, 142.6, 163.0)"> </text><text xml:space="preserve" font-family="AvenirNext-Medium" font-size="32.3" fill="#838686" transform="matrix(1.00, 0.00, -0.00, -1.00, 150.7, 163.0)">e</text><text xml:space="preserve" font-family="AvenirNext-Medium" font-size="32.3" fill="#838686" transform="matrix(1.00, 0.00, -0.00, -1.00, 169.0, 163.0)">a</text><text xml:space="preserve" font-family="AvenirNext-Medium" font-size="32.3" fill="#838686" transform="matrix(1.00, 0.00, -0.00, -1.00, 186.5, 163.0)">c</text><text xml:space="preserve" font-family="AvenirNext-Medium" font-size="32.3" fill="#838686" transform="matrix(1.00, 0.00, -0.00, -1.00, 202.5, 163.0)">h</text><text xml:space="preserve" font-family="AvenirNext-Medium" font-size="32.3" fill="#838686" transform="matrix(1.00, 0.00, -0.00, -1.00, 221.4, 163.0)"> </text><text xml:space="preserve" font-family="LucidaGrande" font-size="33.9" fill="#34A4DA" transform="matrix(1.00, 0.00, -0.00, -1.00, 36.0, 89.6)">▸</text><text xml:space="preserve" font-family="AvenirNext-Medium" font-size="32.3" fill="#838686" transform="matrix(1.00, 0.00, -0.00, -1.00, 69.0, 92.0)">t</text><text xml:space="preserve" font-family="AvenirNext-Medium" font-size="32.3" fill="#838686" transform="matrix(1.00, 0.00, -0.00, -1.00, 79.6, 92.0)">r</text><text xml:space="preserve" font-family="AvenirNext-Medium" font-size="32.3" fill="#838686" transform="matrix(1.00, 0.00, -0.00, -1.00, 90.9, 92.0)">a</text><text xml:space="preserve" font-family="AvenirNext-Medium" font-size="32.3" fill="#838686" transform="matrix(1.00, 0.00, -0.00, -1.00, 108.4, 92.0)">n</text><text xml:space="preserve" font-family="AvenirNext-Medium" font-size="32.3" fill="#838686" transform="matrix(1.00, 0.00, -0.00, -1.00, 127.2, 92.0)">s</text><text xml:space="preserve" font-family="AvenirNext-Medium" font-size="32.3" fill="#838686" transform="matrix(1.00, 0.00, -0.00, -1.00, 141.5, 92.0)">i</text><text xml:space="preserve" font-family="AvenirNext-Medium" font-size="32.3" fill="#838686" transform="matrix(1.00, 0.00, -0.00, -1.00, 149.9, 92.0)">t</text><text xml:space="preserve" font-family="AvenirNext-Medium" font-size="32.3" fill="#838686" transform="matrix(1.00, 0.00, -0.00, -1.00, 160.5, 92.0)">i</text><text xml:space="preserve" font-family="AvenirNext-Medium" font-size="32.3" fill="#838686" transform="matrix(1.00, 0.00, -0.00, -1.00, 168.9, 92.0)">o</text><text xml:space="preserve" font-family="AvenirNext-Medium" font-size="32.3" fill="#838686" transform="matrix(1.00, 0.00, -0.00, -1.00, 188.6, 92.0)">n</text><text xml:space="preserve" font-family="AvenirNext-Medium" font-size="32.3" fill="#838686" transform="matrix(1.00, 0.00, -0.00, -1.00, 207.4, 92.0)">s</text></g></svg>